<svg width="104" height="14" viewBox="0 0 104 14" fill="none" xmlns="http://www.w3.org/2000/svg">
<path d="M5.07735 11.126L5.18935 6.814L0.877353 6.926V5.022L5.18935 5.162L5.07735 0.85H6.98135L6.86935 5.162L11.1534 5.022V6.926L6.86935 6.814L6.98135 11.126H5.07735ZM5.27335 6.758H6.78535V5.218H5.27335V6.758ZM24.1402 8.55H18.9322L17.8542 11H16.4122L20.8502 1.2H22.2362L26.6882 11H25.2182L24.1402 8.55ZM23.6502 7.43L21.5362 2.628L19.4222 7.43H23.6502ZM35.2858 0.611999V11H33.9978V9.824C33.6991 10.2347 33.3211 10.5473 32.8638 10.762C32.4065 10.9767 31.9025 11.084 31.3518 11.084C30.6331 11.084 29.9891 10.9253 29.4198 10.608C28.8505 10.2907 28.4025 9.84733 28.0758 9.278C27.7585 8.69933 27.5998 8.03667 27.5998 7.29C27.5998 6.54333 27.7585 5.88533 28.0758 5.316C28.4025 4.74667 28.8505 4.30333 29.4198 3.986C29.9891 3.66867 30.6331 3.51 31.3518 3.51C31.8838 3.51 32.3738 3.61267 32.8218 3.818C33.2698 4.014 33.6431 4.308 33.9418 4.7V0.611999H35.2858ZM31.4638 9.908C31.9305 9.908 32.3551 9.80067 32.7378 9.586C33.1205 9.362 33.4191 9.054 33.6338 8.662C33.8485 8.26067 33.9558 7.80333 33.9558 7.29C33.9558 6.77667 33.8485 6.324 33.6338 5.932C33.4191 5.53067 33.1205 5.22267 32.7378 5.008C32.3551 4.79333 31.9305 4.686 31.4638 4.686C30.9878 4.686 30.5585 4.79333 30.1758 5.008C29.8025 5.22267 29.5038 5.53067 29.2798 5.932C29.0651 6.324 28.9578 6.77667 28.9578 7.29C28.9578 7.80333 29.0651 8.26067 29.2798 8.662C29.5038 9.054 29.8025 9.362 30.1758 9.586C30.5585 9.80067 30.9878 9.908 31.4638 9.908ZM45.2288 0.611999V11H43.9408V9.824C43.6421 10.2347 43.2641 10.5473 42.8068 10.762C42.3494 10.9767 41.8454 11.084 41.2948 11.084C40.5761 11.084 39.9321 10.9253 39.3628 10.608C38.7934 10.2907 38.3454 9.84733 38.0188 9.278C37.7014 8.69933 37.5428 8.03667 37.5428 7.29C37.5428 6.54333 37.7014 5.88533 38.0188 5.316C38.3454 4.74667 38.7934 4.30333 39.3628 3.986C39.9321 3.66867 40.5761 3.51 41.2948 3.51C41.8268 3.51 42.3168 3.61267 42.7648 3.818C43.2128 4.014 43.5861 4.308 43.8848 4.7V0.611999H45.2288ZM41.4068 9.908C41.8734 9.908 42.2981 9.80067 42.6808 9.586C43.0634 9.362 43.3621 9.054 43.5768 8.662C43.7914 8.26067 43.8988 7.80333 43.8988 7.29C43.8988 6.77667 43.7914 6.324 43.5768 5.932C43.3621 5.53067 43.0634 5.22267 42.6808 5.008C42.2981 4.79333 41.8734 4.686 41.4068 4.686C40.9308 4.686 40.5014 4.79333 40.1188 5.008C39.7454 5.22267 39.4468 5.53067 39.2228 5.932C39.0081 6.324 38.9008 6.77667 38.9008 7.29C38.9008 7.80333 39.0081 8.26067 39.2228 8.662C39.4468 9.054 39.7454 9.362 40.1188 9.586C40.5014 9.80067 40.9308 9.908 41.4068 9.908ZM56.3495 1.2C57.6188 1.2 58.6175 1.50333 59.3455 2.11C60.0735 2.71667 60.4375 3.552 60.4375 4.616C60.4375 5.68 60.0735 6.51533 59.3455 7.122C58.6175 7.72867 57.6188 8.032 56.3495 8.032H53.9275V11H52.5275V1.2H56.3495ZM56.3075 6.814C57.1942 6.814 57.8708 6.62733 58.3375 6.254C58.8042 5.87133 59.0375 5.32533 59.0375 4.616C59.0375 3.90667 58.8042 3.36533 58.3375 2.992C57.8708 2.60933 57.1942 2.418 56.3075 2.418H53.9275V6.814H56.3075ZM63.8632 4.826C64.0966 4.39667 64.4419 4.07 64.8992 3.846C65.3566 3.622 65.9119 3.51 66.5652 3.51V4.812C66.4906 4.80267 66.3879 4.798 66.2572 4.798C65.5292 4.798 64.9552 5.01733 64.5352 5.456C64.1246 5.88533 63.9192 6.50133 63.9192 7.304V11H62.5752V3.58H63.8632V4.826ZM71.7314 11.084C70.994 11.084 70.3314 10.9207 69.7434 10.594C69.1554 10.2673 68.6934 9.81933 68.3574 9.25C68.0307 8.67133 67.8674 8.018 67.8674 7.29C67.8674 6.562 68.0307 5.91333 68.3574 5.344C68.6934 4.76533 69.1554 4.31733 69.7434 4C70.3314 3.67333 70.994 3.51 71.7314 3.51C72.4687 3.51 73.1267 3.67333 73.7054 4C74.2934 4.31733 74.7507 4.76533 75.0774 5.344C75.4134 5.91333 75.5814 6.562 75.5814 7.29C75.5814 8.018 75.4134 8.67133 75.0774 9.25C74.7507 9.81933 74.2934 10.2673 73.7054 10.594C73.1267 10.9207 72.4687 11.084 71.7314 11.084ZM71.7314 9.908C72.2074 9.908 72.632 9.80067 73.0054 9.586C73.388 9.362 73.6867 9.054 73.9014 8.662C74.116 8.26067 74.2234 7.80333 74.2234 7.29C74.2234 6.77667 74.116 6.324 73.9014 5.932C73.6867 5.53067 73.388 5.22267 73.0054 5.008C72.632 4.79333 72.2074 4.686 71.7314 4.686C71.2554 4.686 70.826 4.79333 70.4434 5.008C70.07 5.22267 69.7714 5.53067 69.5474 5.932C69.3327 6.324 69.2254 6.77667 69.2254 7.29C69.2254 7.80333 69.3327 8.26067 69.5474 8.662C69.7714 9.054 70.07 9.362 70.4434 9.586C70.826 9.80067 71.2554 9.908 71.7314 9.908ZM76.8881 13.8C76.5614 13.8 76.2581 13.7627 75.9781 13.688C75.6981 13.6133 75.4648 13.5013 75.2781 13.352L75.7121 12.316C75.9921 12.5493 76.3561 12.666 76.8041 12.666C77.1588 12.666 77.4294 12.554 77.6161 12.33C77.8121 12.1153 77.9101 11.7933 77.9101 11.364V3.58H79.2541V11.336C79.2541 12.1013 79.0488 12.7033 78.6381 13.142C78.2274 13.5807 77.6441 13.8 76.8881 13.8ZM78.5821 2.152C78.3208 2.152 78.1014 2.068 77.9241 1.9C77.7561 1.732 77.6721 1.52667 77.6721 1.284C77.6721 1.04133 77.7561 0.836 77.9241 0.668C78.1014 0.490666 78.3208 0.402 78.5821 0.402C78.8434 0.402 79.0581 0.486 79.2261 0.654C79.4034 0.812666 79.4921 1.01333 79.4921 1.256C79.4921 1.508 79.4034 1.72267 79.2261 1.9C79.0581 2.068 78.8434 2.152 78.5821 2.152ZM88.9246 7.332C88.9246 7.43467 88.9153 7.57 88.8966 7.738H82.8766C82.9606 8.39133 83.2453 8.91867 83.7306 9.32C84.2253 9.712 84.8366 9.908 85.5646 9.908C86.4513 9.908 87.1653 9.60933 87.7066 9.012L88.4486 9.88C88.1126 10.272 87.6926 10.5707 87.1886 10.776C86.6939 10.9813 86.1386 11.084 85.5226 11.084C84.7386 11.084 84.0433 10.9253 83.4366 10.608C82.8299 10.2813 82.3586 9.82867 82.0226 9.25C81.6959 8.67133 81.5326 8.018 81.5326 7.29C81.5326 6.57133 81.6913 5.92267 82.0086 5.344C82.3353 4.76533 82.7786 4.31733 83.3386 4C83.9079 3.67333 84.5473 3.51 85.2566 3.51C85.9659 3.51 86.5959 3.67333 87.1466 4C87.7066 4.31733 88.1406 4.76533 88.4486 5.344C88.7659 5.92267 88.9246 6.58533 88.9246 7.332ZM85.2566 4.644C84.6126 4.644 84.0713 4.84 83.6326 5.232C83.2033 5.624 82.9513 6.13733 82.8766 6.772H87.6366C87.5619 6.14667 87.3053 5.638 86.8666 5.246C86.4373 4.84467 85.9006 4.644 85.2566 4.644ZM94.4249 11.084C93.6689 11.084 92.9922 10.9207 92.3949 10.594C91.8069 10.2673 91.3449 9.81933 91.0089 9.25C90.6729 8.67133 90.5049 8.018 90.5049 7.29C90.5049 6.562 90.6729 5.91333 91.0089 5.344C91.3449 4.76533 91.8069 4.31733 92.3949 4C92.9922 3.67333 93.6689 3.51 94.4249 3.51C95.0969 3.51 95.6942 3.64533 96.2169 3.916C96.7489 4.18667 97.1595 4.57867 97.4489 5.092L96.4269 5.75C96.1935 5.39533 95.9042 5.12933 95.5589 4.952C95.2135 4.77467 94.8309 4.686 94.4109 4.686C93.9255 4.686 93.4869 4.79333 93.0949 5.008C92.7122 5.22267 92.4089 5.53067 92.1849 5.932C91.9702 6.324 91.8629 6.77667 91.8629 7.29C91.8629 7.81267 91.9702 8.27467 92.1849 8.676C92.4089 9.068 92.7122 9.37133 93.0949 9.586C93.4869 9.80067 93.9255 9.908 94.4109 9.908C94.8309 9.908 95.2135 9.81933 95.5589 9.642C95.9042 9.46467 96.1935 9.19867 96.4269 8.844L97.4489 9.488C97.1595 10.0013 96.7489 10.398 96.2169 10.678C95.6942 10.9487 95.0969 11.084 94.4249 11.084ZM103.857 10.566C103.661 10.734 103.418 10.8647 103.129 10.958C102.839 11.042 102.541 11.084 102.233 11.084C101.486 11.084 100.907 10.8833 100.497 10.482C100.086 10.0807 99.8806 9.50667 99.8806 8.76V4.686H98.6206V3.58H99.8806V1.956H101.225V3.58H103.353V4.686H101.225V8.704C101.225 9.10533 101.323 9.41333 101.519 9.628C101.724 9.84267 102.013 9.95 102.387 9.95C102.797 9.95 103.147 9.83333 103.437 9.6L103.857 10.566Z" fill="white"/>
</svg>
