<svg width="20" height="20" viewBox="0 0 20 20" fill="none" xmlns="http://www.w3.org/2000/svg">
<path d="M5.5 14C5.89782 14 6.27936 13.842 6.56066 13.5607C6.84196 13.2794 7 12.8978 7 12.5C7.00488 12.4501 7.00488 12.3999 7 12.35L9.79 9.56H10.02H10.25L11.86 11.17C11.86 11.17 11.86 11.22 11.86 11.25C11.86 11.6478 12.018 12.0294 12.2993 12.3107C12.5806 12.592 12.9622 12.75 13.36 12.75C13.7578 12.75 14.1394 12.592 14.4207 12.3107C14.702 12.0294 14.86 11.6478 14.86 11.25V11.17L18.5 7.5C18.7967 7.5 19.0867 7.41203 19.3334 7.2472C19.58 7.08238 19.7723 6.84811 19.8858 6.57403C19.9993 6.29994 20.0291 5.99834 19.9712 5.70736C19.9133 5.41639 19.7704 5.14912 19.5607 4.93934C19.3509 4.72956 19.0836 4.5867 18.7926 4.52882C18.5017 4.47094 18.2001 4.50065 17.926 4.61418C17.6519 4.72771 17.4176 4.91997 17.2528 5.16664C17.088 5.41332 17 5.70333 17 6C16.9951 6.04988 16.9951 6.10012 17 6.15L13.39 9.76H13.23L11.5 8C11.5 7.60218 11.342 7.22064 11.0607 6.93934C10.7794 6.65804 10.3978 6.5 10 6.5C9.60218 6.5 9.22064 6.65804 8.93934 6.93934C8.65804 7.22064 8.5 7.60218 8.5 8L5.5 11C5.10218 11 4.72064 11.158 4.43934 11.4393C4.15804 11.7206 4 12.1022 4 12.5C4 12.8978 4.15804 13.2794 4.43934 13.5607C4.72064 13.842 5.10218 14 5.5 14ZM19 18H2V1C2 0.734784 1.89464 0.48043 1.70711 0.292893C1.51957 0.105357 1.26522 0 1 0C0.734784 0 0.48043 0.105357 0.292893 0.292893C0.105357 0.48043 0 0.734784 0 1V19C0 19.2652 0.105357 19.5196 0.292893 19.7071C0.48043 19.8946 0.734784 20 1 20H19C19.2652 20 19.5196 19.8946 19.7071 19.7071C19.8946 19.5196 20 19.2652 20 19C20 18.7348 19.8946 18.4804 19.7071 18.2929C19.5196 18.1054 19.2652 18 19 18Z" fill="#5E5873"/>
</svg>
