<svg width="52" height="52" viewBox="0 0 52 52" fill="none" xmlns="http://www.w3.org/2000/svg">
<path d="M20.6667 28.4167H2.58333C1.89819 28.4167 1.24111 28.6888 0.756641 29.1733C0.272172 29.6578 0 30.3149 0 31V49.0833C0 49.7685 0.272172 50.4256 0.756641 50.91C1.24111 51.3945 1.89819 51.6667 2.58333 51.6667H20.6667C21.3518 51.6667 22.0089 51.3945 22.4934 50.91C22.9778 50.4256 23.25 49.7685 23.25 49.0833V31C23.25 30.3149 22.9778 29.6578 22.4934 29.1733C22.0089 28.6888 21.3518 28.4167 20.6667 28.4167ZM18.0833 46.5H5.16667V33.5833H18.0833V46.5ZM49.0833 0H31C30.3149 0 29.6578 0.272172 29.1733 0.756641C28.6888 1.24111 28.4167 1.89819 28.4167 2.58333V20.6667C28.4167 21.3518 28.6888 22.0089 29.1733 22.4934C29.6578 22.9778 30.3149 23.25 31 23.25H49.0833C49.7685 23.25 50.4256 22.9778 50.91 22.4934C51.3945 22.0089 51.6667 21.3518 51.6667 20.6667V2.58333C51.6667 1.89819 51.3945 1.24111 50.91 0.756641C50.4256 0.272172 49.7685 0 49.0833 0ZM46.5 18.0833H33.5833V5.16667H46.5V18.0833ZM49.0833 28.4167H31C30.3149 28.4167 29.6578 28.6888 29.1733 29.1733C28.6888 29.6578 28.4167 30.3149 28.4167 31V49.0833C28.4167 49.7685 28.6888 50.4256 29.1733 50.91C29.6578 51.3945 30.3149 51.6667 31 51.6667H49.0833C49.7685 51.6667 50.4256 51.3945 50.91 50.91C51.3945 50.4256 51.6667 49.7685 51.6667 49.0833V31C51.6667 30.3149 51.3945 29.6578 50.91 29.1733C50.4256 28.6888 49.7685 28.4167 49.0833 28.4167ZM46.5 46.5H33.5833V33.5833H46.5V46.5ZM20.6667 0H2.58333C1.89819 0 1.24111 0.272172 0.756641 0.756641C0.272172 1.24111 0 1.89819 0 2.58333V20.6667C0 21.3518 0.272172 22.0089 0.756641 22.4934C1.24111 22.9778 1.89819 23.25 2.58333 23.25H20.6667C21.3518 23.25 22.0089 22.9778 22.4934 22.4934C22.9778 22.0089 23.25 21.3518 23.25 20.6667V2.58333C23.25 1.89819 22.9778 1.24111 22.4934 0.756641C22.0089 0.272172 21.3518 0 20.6667 0ZM18.0833 18.0833H5.16667V5.16667H18.0833V18.0833Z" fill="#5E5873"/>
</svg>
