<svg width="16" height="21" viewBox="0 0 16 21" fill="none" xmlns="http://www.w3.org/2000/svg">
<path d="M15.8552 6.60059C15.7807 6.4293 15.6597 6.28231 15.506 6.17627C15.3522 6.07022 15.1718 6.00936 14.9852 6.00059H10.4052L11.6752 1.26059C11.7157 1.11226 11.7214 0.956608 11.6919 0.80572C11.6624 0.654833 11.5985 0.512776 11.5052 0.390587C11.4121 0.269572 11.2924 0.171501 11.1555 0.103898C11.0186 0.0362942 10.8679 0.00095356 10.7152 0.00058648H3.71523C3.48947 -0.00714676 3.26774 0.0617862 3.08615 0.196158C2.90457 0.330531 2.77383 0.522425 2.71523 0.740587L0.035229 10.7406C-0.00521884 10.8889 -0.0109226 11.0446 0.0185611 11.1955C0.0480449 11.3463 0.111922 11.4884 0.205229 11.6106C0.299414 11.7329 0.420655 11.8318 0.55945 11.8995C0.698245 11.9672 0.850824 12.0018 1.00523 12.0006H4.87523L3.06523 18.7406C3.00593 18.9579 3.02175 19.1889 3.11013 19.3961C3.19851 19.6034 3.35428 19.7747 3.55219 19.8823C3.7501 19.9899 3.97855 20.0276 4.20053 19.9892C4.42251 19.9507 4.62502 19.8385 4.77523 19.6706L15.6752 7.67059C15.805 7.52847 15.891 7.35192 15.923 7.16212C15.9549 6.97232 15.9314 6.77735 15.8552 6.60059V6.60059ZM6.06523 15.2806L7.13523 11.2806C7.17568 11.1323 7.18138 10.9766 7.1519 10.8257C7.12241 10.6748 7.05854 10.5328 6.96523 10.4106C6.87207 10.2896 6.75243 10.1915 6.61549 10.1239C6.47855 10.0563 6.32795 10.021 6.17523 10.0206H2.33523L4.47523 2.00059H9.40523L8.13523 6.74059C8.09445 6.89164 8.0897 7.05016 8.12133 7.20339C8.15297 7.35662 8.22012 7.50029 8.31739 7.62284C8.41465 7.7454 8.53932 7.84342 8.68136 7.90903C8.8234 7.97463 8.97886 8.00599 9.13523 8.00059H12.7052L6.06523 15.2806Z" fill="white"/>
</svg>
