<svg width="14" height="17" viewBox="0 0 14 17" fill="none" xmlns="http://www.w3.org/2000/svg">
<path d="M3.99878 2.46885V11.282C3.99878 11.6715 4.15353 12.0451 4.429 12.3206C4.70446 12.596 5.07807 12.7508 5.46763 12.7508H11.343C11.7326 12.7508 12.1062 12.596 12.3817 12.3206C12.6571 12.0451 12.8119 11.6715 12.8119 11.282V4.84986C12.8119 4.65418 12.7727 4.46047 12.6968 4.28012C12.6209 4.09977 12.5097 3.93641 12.3698 3.79963L9.93514 1.41862C9.66073 1.15031 9.2922 1.00005 8.90841 1H5.46763C5.07807 1 4.70446 1.15475 4.429 1.43022C4.15353 1.70568 3.99878 2.07929 3.99878 2.46885V2.46885Z" stroke="#5E5873" stroke-width="2" stroke-linecap="round" stroke-linejoin="round"/>
<path d="M9.87414 12.7506V14.2194C9.87414 14.609 9.71938 14.9826 9.44392 15.258C9.16846 15.5335 8.79485 15.6883 8.40529 15.6883H2.52989C2.14032 15.6883 1.76671 15.5335 1.49125 15.258C1.21579 14.9826 1.06104 14.609 1.06104 14.2194V6.14073C1.06104 5.75116 1.21579 5.37755 1.49125 5.10209C1.76671 4.82663 2.14032 4.67188 2.52989 4.67188H3.99874" stroke="#5E5873" stroke-width="2" stroke-linecap="round" stroke-linejoin="round"/>
</svg>
