<svg width="18" height="18" viewBox="0 0 18 18" fill="none" xmlns="http://www.w3.org/2000/svg">
<path d="M13.1985 3.46025C11.8366 3.46025 10.4742 3.46256 9.11238 3.45737C8.96241 3.45679 8.89089 3.4914 8.8384 3.64714C8.45136 4.7944 7.40504 5.54252 6.21682 5.53675C5.04187 5.53098 4.00478 4.77825 3.6212 3.63906C3.57275 3.49544 3.51045 3.45564 3.36395 3.45679C2.4849 3.46429 1.60585 3.46372 0.726218 3.4591C0.183445 3.45622 -0.15687 2.9394 0.0726981 2.47103C0.206517 2.19821 0.436085 2.07535 0.738331 2.07592C1.61046 2.07708 2.48259 2.07304 3.35414 2.07996C3.50699 2.08111 3.57448 2.04016 3.62582 1.88731C4.00708 0.752156 5.0511 0.00173343 6.22778 3.01171e-06C7.4085 -0.0017274 8.44848 0.742351 8.83436 1.87923C8.88858 2.03901 8.96068 2.08054 9.12276 2.07996C11.8038 2.07477 14.4842 2.07592 17.1652 2.0765C17.2586 2.0765 17.3543 2.07304 17.4449 2.0915C17.7921 2.16244 18.0309 2.49122 17.9952 2.83846C17.9594 3.18627 17.6704 3.45622 17.3059 3.45852C16.3472 3.46372 15.3892 3.46083 14.4305 3.46083C14.0198 3.46083 13.6092 3.46025 13.1985 3.46025ZM7.61557 2.77789C7.61961 2.01305 6.99955 1.38664 6.23643 1.38433C5.4814 1.3826 4.85729 1.99517 4.84864 2.74732C4.83941 3.51274 5.45544 4.1455 6.21625 4.15184C6.98051 4.15877 7.61154 3.53928 7.61557 2.77789Z" fill="white"/>
<path d="M4.8128 8.30697C6.17464 8.30697 7.53705 8.30466 8.89889 8.30985C9.04136 8.31043 9.10884 8.2787 9.15845 8.13104C9.54375 6.98262 10.5878 6.22932 11.7731 6.23047C12.9596 6.23162 13.9926 6.98089 14.3843 8.13623C14.4299 8.2712 14.4875 8.311 14.6254 8.30985C15.49 8.30351 16.3547 8.30639 17.2199 8.30697C17.6813 8.30754 17.9957 8.58556 17.9997 8.99221C18.0032 9.40809 17.6865 9.69015 17.2118 9.69072C16.3616 9.6913 15.5108 9.69591 14.6606 9.68668C14.4962 9.68495 14.427 9.7311 14.3733 9.88914C13.9875 11.0243 12.9452 11.7689 11.765 11.7672C10.5889 11.7649 9.54548 11.0139 9.16479 9.87818C9.11288 9.72245 9.04136 9.68784 8.89139 9.68841C6.2104 9.69245 3.52999 9.69188 0.848999 9.69072C0.748635 9.69072 0.645387 9.69418 0.547907 9.67284C0.19894 9.59613 -0.0323587 9.26619 0.00859446 8.91896C0.0501244 8.56307 0.343141 8.30927 0.728447 8.3087C2.08855 8.30524 3.45096 8.30697 4.8128 8.30697ZM11.7702 7.6148C11.0071 7.6148 10.3842 8.23948 10.3865 9.00317C10.3882 9.75705 11.006 10.3771 11.7587 10.3823C12.5224 10.3875 13.1511 9.76571 13.1534 9.00432C13.1557 8.23948 12.5339 7.61538 11.7702 7.6148Z" fill="white"/>
<path d="M13.1847 15.9173C11.8228 15.9173 10.4604 15.9202 9.09857 15.9138C8.9509 15.9133 8.89034 15.9554 8.84189 16.0973C8.45254 17.2474 7.41141 17.9967 6.22435 17.9938C5.04132 17.9909 4.00365 17.237 3.61661 16.0834C3.56932 15.9427 3.50471 15.9144 3.37205 15.915C2.50742 15.9202 1.64279 15.9185 0.777582 15.9173C0.318445 15.9167 0.00408648 15.6347 0.00293287 15.2269C0.00177926 14.8173 0.314407 14.5341 0.772967 14.5335C1.6376 14.5324 2.5028 14.5289 3.36743 14.537C3.51798 14.5387 3.57451 14.4903 3.62181 14.3507C4.0048 13.2138 5.04363 12.4611 6.21973 12.4571C7.40795 12.4524 8.45197 13.2 8.839 14.349C8.89207 14.507 8.96763 14.5359 9.11472 14.5359C11.8245 14.5324 14.5338 14.5324 17.2436 14.5335C17.7858 14.5335 18.1348 15.0025 17.9502 15.476C17.8418 15.7546 17.5886 15.9167 17.2482 15.9167C15.8945 15.9185 14.5396 15.9173 13.1847 15.9173ZM7.6156 15.2286C7.61676 14.4643 6.99438 13.8408 6.23012 13.8414C5.47566 13.842 4.85444 14.458 4.84867 15.2107C4.84232 15.9756 5.46181 16.6049 6.22319 16.6089C6.98688 16.6129 7.61387 15.9911 7.6156 15.2286Z" fill="white"/>
</svg>
