<svg width="16" height="17" viewBox="0 0 16 17" fill="none" xmlns="http://www.w3.org/2000/svg">
<path d="M4.12899 15.6891C5.48103 15.6891 6.57708 14.5931 6.57708 13.2411C6.57708 11.889 5.48103 10.793 4.12899 10.793C2.77695 10.793 1.68091 11.889 1.68091 13.2411C1.68091 14.5931 2.77695 15.6891 4.12899 15.6891Z" stroke="#5E5873" stroke-width="1.8" stroke-linecap="round" stroke-linejoin="round"/>
<path d="M10.6571 10.7923L4.12891 1" stroke="#5E5873" stroke-width="1.8" stroke-linecap="round" stroke-linejoin="round"/>
<path d="M12.2892 1L9.84113 4.67213M5.76099 10.7923L8.20907 7.12021L5.76099 10.7923Z" stroke="#5E5873" stroke-width="1.8" stroke-linecap="round" stroke-linejoin="round"/>
<path d="M12.2891 15.6891C13.6412 15.6891 14.7372 14.5931 14.7372 13.2411C14.7372 11.889 13.6412 10.793 12.2891 10.793C10.9371 10.793 9.84106 11.889 9.84106 13.2411C9.84106 14.5931 10.9371 15.6891 12.2891 15.6891Z" stroke="#5E5873" stroke-width="1.8" stroke-linecap="round" stroke-linejoin="round"/>
</svg>
