<svg width="14" height="15" viewBox="0 0 14 15" fill="none" xmlns="http://www.w3.org/2000/svg">
<path d="M4.22917 1.60375H4.08333C4.16354 1.60375 4.22917 1.54075 4.22917 1.46375V1.60375H9.77083V1.46375C9.77083 1.54075 9.83646 1.60375 9.91667 1.60375H9.77083V2.86375H11.0833V1.46375C11.0833 0.846 10.5602 0.34375 9.91667 0.34375H4.08333C3.43984 0.34375 2.91667 0.846 2.91667 1.46375V2.86375H4.22917V1.60375ZM13.4167 2.86375H0.583333C0.260677 2.86375 0 3.114 0 3.42375V3.98375C0 4.06075 0.065625 4.12375 0.145833 4.12375H1.24687L1.69714 13.2763C1.7263 13.873 2.24036 14.3438 2.86198 14.3438H11.138C11.7615 14.3438 12.2737 13.8748 12.3029 13.2763L12.7531 4.12375H13.8542C13.9344 4.12375 14 4.06075 14 3.98375V3.42375C14 3.114 13.7393 2.86375 13.4167 2.86375ZM10.9977 13.0838H3.00234L2.5612 4.12375H11.4388L10.9977 13.0838Z" fill="#5E5873"/>
</svg>
