<svg width="22" height="22" viewBox="0 0 22 22" fill="none" xmlns="http://www.w3.org/2000/svg">
<path d="M21.5286 19.3286C22.1571 19.9571 22.1571 20.9 21.5286 21.5286C21.2143 21.8429 20.9 22 20.4286 22C19.9571 22 19.6429 21.8429 19.3286 21.5286L11 13.2L2.67143 21.5286C2.35714 21.8429 2.04286 22 1.57143 22C1.1 22 0.785714 21.8429 0.471429 21.5286C-0.157143 20.9 -0.157143 19.9571 0.471429 19.3286L8.8 11L0.471429 2.67143C-0.157143 2.04286 -0.157143 1.1 0.471429 0.471429C1.1 -0.157143 2.04286 -0.157143 2.67143 0.471429L11 8.8L19.3286 0.471429C19.9571 -0.157143 20.9 -0.157143 21.5286 0.471429C22.1571 1.1 22.1571 2.04286 21.5286 2.67143L13.2 11L21.5286 19.3286Z" fill="black"/>
</svg>
