<svg width="12" height="8" viewBox="0 0 12 8" fill="none" xmlns="http://www.w3.org/2000/svg">
<path d="M10.9598 3.8C9.94979 1.455 8.04979 0 5.99979 0C3.94979 0 2.04979 1.455 1.03979 3.8C1.01226 3.86308 0.998047 3.93117 0.998047 4C0.998047 4.06883 1.01226 4.13692 1.03979 4.2C2.04979 6.545 3.94979 8 5.99979 8C8.04979 8 9.94979 6.545 10.9598 4.2C10.9873 4.13692 11.0015 4.06883 11.0015 4C11.0015 3.93117 10.9873 3.86308 10.9598 3.8V3.8ZM5.99979 7C4.41479 7 2.91479 5.855 2.04979 4C2.91479 2.145 4.41479 1 5.99979 1C7.58479 1 9.08479 2.145 9.94979 4C9.08479 5.855 7.58479 7 5.99979 7ZM5.99979 2C5.60423 2 5.21755 2.1173 4.88865 2.33706C4.55975 2.55682 4.30341 2.86918 4.15203 3.23463C4.00065 3.60009 3.96105 4.00222 4.03822 4.39018C4.11539 4.77814 4.30587 5.13451 4.58558 5.41421C4.86528 5.69392 5.22165 5.8844 5.60961 5.96157C5.99757 6.03874 6.3997 5.99913 6.76516 5.84776C7.13061 5.69638 7.44297 5.44004 7.66273 5.11114C7.88249 4.78224 7.99979 4.39556 7.99979 4C7.99979 3.46957 7.78908 2.96086 7.414 2.58579C7.03893 2.21071 6.53022 2 5.99979 2V2ZM5.99979 5C5.80201 5 5.60867 4.94135 5.44422 4.83147C5.27977 4.72159 5.1516 4.56541 5.07591 4.38268C5.00022 4.19996 4.98042 3.99889 5.019 3.80491C5.05759 3.61093 5.15283 3.43275 5.29268 3.29289C5.43254 3.15304 5.61072 3.0578 5.8047 3.01921C5.99868 2.98063 6.19975 3.00043 6.38247 3.07612C6.5652 3.15181 6.72138 3.27998 6.83126 3.44443C6.94114 3.60888 6.99979 3.80222 6.99979 4C6.99979 4.26522 6.89443 4.51957 6.7069 4.70711C6.51936 4.89464 6.26501 5 5.99979 5Z" fill="white"/>
</svg>
