<svg width="16" height="16" viewBox="0 0 16 16" fill="none" xmlns="http://www.w3.org/2000/svg">
<path d="M13.25 3.12502H8.54L8.3 2.37502C8.14441 1.93494 7.85581 1.55414 7.47418 1.28539C7.09254 1.01663 6.63677 0.873217 6.17 0.875017H2.75C2.15326 0.875017 1.58097 1.11207 1.15901 1.53403C0.737053 1.95598 0.5 2.52828 0.5 3.12502V12.875C0.5 13.4718 0.737053 14.0441 1.15901 14.466C1.58097 14.888 2.15326 15.125 2.75 15.125H13.25C13.8467 15.125 14.419 14.888 14.841 14.466C15.2629 14.0441 15.5 13.4718 15.5 12.875V5.37502C15.5 4.77828 15.2629 4.20598 14.841 3.78403C14.419 3.36207 13.8467 3.12502 13.25 3.12502ZM14 12.875C14 13.0739 13.921 13.2647 13.7803 13.4053C13.6397 13.546 13.4489 13.625 13.25 13.625H2.75C2.55109 13.625 2.36032 13.546 2.21967 13.4053C2.07902 13.2647 2 13.0739 2 12.875V3.12502C2 2.9261 2.07902 2.73534 2.21967 2.59469C2.36032 2.45403 2.55109 2.37502 2.75 2.37502H6.17C6.32723 2.37461 6.48062 2.42363 6.60847 2.51515C6.73633 2.60667 6.83219 2.73605 6.8825 2.88502L7.2875 4.11502C7.33781 4.26398 7.43367 4.39337 7.56153 4.48489C7.68938 4.5764 7.84277 4.62542 8 4.62502H13.25C13.4489 4.62502 13.6397 4.70403 13.7803 4.84469C13.921 4.98534 14 5.1761 14 5.37502V12.875Z" fill="white"/>
</svg>
