<svg width="74" height="67" viewBox="0 0 74 67" fill="none" xmlns="http://www.w3.org/2000/svg">
<path d="M36.2649 40.7969V66.3084V40.7969Z" fill="#5E5873"/>
<path d="M36.2649 40.7969V66.3084" stroke="#5E5873" stroke-width="1.5"/>
<path d="M41.1836 33.1166L62.8564 17.7656L41.1836 33.1166Z" fill="#5E5873"/>
<path d="M41.1836 33.1166L62.8564 17.7656" stroke="#5E5873" stroke-width="1.5"/>
<path d="M9.61108 17.7656L30.5747 32.427C35.9625 36.1958 31.1642 32.8385 31.1642 32.8385" fill="#5E5873"/>
<path d="M9.61108 17.7656L30.5747 32.427C35.9625 36.1958 31.1642 32.8385 31.1642 32.8385" stroke="#5E5873" stroke-width="1.5"/>
<path d="M36.2319 25.9933V2.57812V25.9933Z" fill="#5E5873"/>
<path d="M36.2319 25.9933V2.57812" stroke="#5E5873" stroke-width="1.5"/>
<path d="M44.2456 39.9414L63.208 50.2492L44.2456 39.9414Z" fill="#5E5873"/>
<path d="M44.2456 39.9414L63.208 50.2492" stroke="#5E5873" stroke-width="1.5"/>
<path d="M29.9786 39.3699L8.84902 50.2523L29.9786 39.3699Z" fill="#5E5873"/>
<path d="M29.9786 39.3699L8.84902 50.2523" stroke="#5E5873" stroke-width="1.5"/>
<path d="M36.232 65.9121C53.4407 65.9121 67.3911 51.8821 67.3911 34.5752C67.3911 17.2683 53.4407 3.23828 36.232 3.23828C19.0234 3.23828 5.073 17.2683 5.073 34.5752C5.073 51.8821 19.0234 65.9121 36.232 65.9121Z" stroke="#5E5873" stroke-width="1.5"/>
<path d="M36.2322 23.6328L46.1407 41.3068H26.3237L36.2322 23.6328Z" fill="#5E5873"/>
<path d="M21.4907 12.8847C24.9816 12.8847 27.8115 10.0004 27.8115 6.44236C27.8115 2.88434 24.9816 0 21.4907 0C17.9998 0 15.1699 2.88434 15.1699 6.44236C15.1699 10.0004 17.9998 12.8847 21.4907 12.8847Z" fill="#5E5873"/>
<path d="M51.8306 12.8847C55.3215 12.8847 58.1514 10.0004 58.1514 6.44236C58.1514 2.88434 55.3215 0 51.8306 0C48.3397 0 45.5098 2.88434 45.5098 6.44236C45.5098 10.0004 48.3397 12.8847 51.8306 12.8847Z" fill="#5E5873"/>
<path d="M67.0005 39.9433C70.4914 39.9433 73.3213 37.059 73.3213 33.501C73.3213 29.9429 70.4914 27.0586 67.0005 27.0586C63.5096 27.0586 60.6797 29.9429 60.6797 33.501C60.6797 37.059 63.5096 39.9433 67.0005 39.9433Z" fill="#5E5873"/>
<path d="M51.8306 67.0019C55.3215 67.0019 58.1514 64.1176 58.1514 60.5595C58.1514 57.0015 55.3215 54.1172 51.8306 54.1172C48.3397 54.1172 45.5098 57.0015 45.5098 60.5595C45.5098 64.1176 48.3397 67.0019 51.8306 67.0019Z" fill="#5E5873"/>
<path d="M21.4907 67.0019C24.9816 67.0019 27.8115 64.1176 27.8115 60.5595C27.8115 57.0015 24.9816 54.1172 21.4907 54.1172C17.9998 54.1172 15.1699 57.0015 15.1699 60.5595C15.1699 64.1176 17.9998 67.0019 21.4907 67.0019Z" fill="#5E5873"/>
<path d="M6.3208 39.9433C9.81168 39.9433 12.6416 37.059 12.6416 33.501C12.6416 29.9429 9.81168 27.0586 6.3208 27.0586C2.82992 27.0586 0 29.9429 0 33.501C0 37.059 2.82992 39.9433 6.3208 39.9433Z" fill="#5E5873"/>
</svg>
