<svg width="29" height="27" viewBox="0 0 29 27" fill="none" xmlns="http://www.w3.org/2000/svg">
<path d="M14.2651 16.0469V26.082Z" fill="#26272D"/>
<path d="M14.2651 16.0469V26.082" stroke="#26272D" stroke-width="1.5"/>
<path d="M16.2002 13.0267L24.7254 6.98828Z" fill="#26272D"/>
<path d="M16.2002 13.0267L24.7254 6.98828" stroke="#26272D" stroke-width="1.5"/>
<path d="M3.78027 6.98828L12.0265 12.7555C14.1458 14.2379 12.2583 12.9173 12.2583 12.9173" fill="#26272D"/>
<path d="M3.78027 6.98828L12.0265 12.7555C14.1458 14.2379 12.2583 12.9173 12.2583 12.9173" stroke="#26272D" stroke-width="1.5"/>
<path d="M14.2524 10.2262V1.01562Z" fill="#26272D"/>
<path d="M14.2524 10.2262V1.01562" stroke="#26272D" stroke-width="1.5"/>
<path d="M17.4043 15.7109L24.8633 19.7656Z" fill="#26272D"/>
<path d="M17.4043 15.7109L24.8633 19.7656" stroke="#26272D" stroke-width="1.5"/>
<path d="M11.7924 15.4854L3.48088 19.7661Z" fill="#26272D"/>
<path d="M11.7924 15.4854L3.48088 19.7661" stroke="#26272D" stroke-width="1.5"/>
<path d="M14.2518 25.9267C21.0209 25.9267 26.5084 20.4079 26.5084 13.6001C26.5084 6.79226 21.0209 1.27344 14.2518 1.27344C7.48261 1.27344 1.99512 6.79226 1.99512 13.6001C1.99512 20.4079 7.48261 25.9267 14.2518 25.9267Z" stroke="#26272D" stroke-width="1.5"/>
<path d="M14.2521 9.29688L18.1497 16.2491H10.3545L14.2521 9.29688Z" fill="#26272D"/>
<path d="M8.45362 5.06831C9.82679 5.06831 10.94 3.93373 10.94 2.53415C10.94 1.13458 9.82679 0 8.45362 0C7.08046 0 5.96729 1.13458 5.96729 2.53415C5.96729 3.93373 7.08046 5.06831 8.45362 5.06831Z" fill="#26272D"/>
<path d="M20.3882 5.06831C21.7614 5.06831 22.8745 3.93373 22.8745 2.53415C22.8745 1.13458 21.7614 0 20.3882 0C19.015 0 17.9019 1.13458 17.9019 2.53415C17.9019 3.93373 19.015 5.06831 20.3882 5.06831Z" fill="#26272D"/>
<path d="M26.355 15.7128C27.7282 15.7128 28.8413 14.5783 28.8413 13.1787C28.8413 11.7791 27.7282 10.6445 26.355 10.6445C24.9818 10.6445 23.8687 11.7791 23.8687 13.1787C23.8687 14.5783 24.9818 15.7128 26.355 15.7128Z" fill="#26272D"/>
<path d="M20.3882 26.3535C21.7614 26.3535 22.8745 25.2189 22.8745 23.8193C22.8745 22.4197 21.7614 21.2852 20.3882 21.2852C19.015 21.2852 17.9019 22.4197 17.9019 23.8193C17.9019 25.2189 19.015 26.3535 20.3882 26.3535Z" fill="#26272D"/>
<path d="M8.45362 26.3535C9.82679 26.3535 10.94 25.2189 10.94 23.8193C10.94 22.4197 9.82679 21.2852 8.45362 21.2852C7.08046 21.2852 5.96729 22.4197 5.96729 23.8193C5.96729 25.2189 7.08046 26.3535 8.45362 26.3535Z" fill="#26272D"/>
<path d="M2.48634 15.7128C3.85951 15.7128 4.97268 14.5783 4.97268 13.1787C4.97268 11.7791 3.85951 10.6445 2.48634 10.6445C1.11317 10.6445 0 11.7791 0 13.1787C0 14.5783 1.11317 15.7128 2.48634 15.7128Z" fill="#26272D"/>
</svg>
