<svg width="18" height="16" viewBox="0 0 18 16" fill="none" xmlns="http://www.w3.org/2000/svg">
<path d="M4.63296 3.16325L0.316547 1.54459L4.66945 0L8.97226 1.57423L4.63293 3.16325H4.63296ZM4.91421 6.92163C5.83661 6.62938 6.77004 6.66563 7.63284 6.96213L9.30125 3.73525V2.05527L4.91421 3.6618V6.92163ZM12.4828 0.0497461L12.4906 13.0283L18 10.6966L12.4828 0.0497813V0.0497461ZM8.1533 7.18541C9.26571 7.80219 10.0986 8.70198 10.2245 10.0545C10.1374 11.0821 9.71364 12.0277 9.00868 12.7499C8.25413 13.5229 7.23526 13.9663 6.21341 13.9663C5.18414 13.9663 4.15986 13.5902 3.40316 12.9344C2.62462 12.2598 2.19308 11.3555 2.18556 10.3856C2.22036 9.00538 2.84041 7.88161 4.34936 7.14719V3.66012L0 2.02915V7.79502L2.36095 8.87326C1.90392 9.58338 1.63863 10.4286 1.63863 11.3359C1.63863 13.8524 3.67864 15.8924 6.19513 15.8924C8.32465 15.8924 10.1128 14.4315 10.6124 12.4573L11.8504 13.0284L11.8426 0.0498164L8.1533 7.18548V7.18541Z" fill="#F8F8F8"/>
</svg>
