<svg width="14" height="16" viewBox="0 0 14 16" fill="none" xmlns="http://www.w3.org/2000/svg">
<path d="M5.51994 15.7885H5.41994H2.67948C2.23557 15.7885 1.80984 15.6122 1.49595 15.2983C1.18206 14.9844 1.00571 14.5586 1.00571 14.1147V3.62295C1.00571 3.17904 1.18206 2.75331 1.49595 2.43941C1.80984 2.12552 2.23557 1.94918 2.67948 1.94918H3.22415C3.34411 1.65092 3.54767 1.393 3.81102 1.20689C4.0938 1.00705 4.43157 0.899825 4.77784 0.9C4.77785 0.9 4.77788 0.9 4.77789 0.9L4.77784 1L5.51994 15.7885ZM5.51994 15.7885V15.6885V14.6393V14.5393H5.41994H2.67948C2.56687 14.5393 2.45888 14.4946 2.37925 14.415C2.29963 14.3353 2.25489 14.2273 2.25489 14.1147V3.62295C2.25489 3.51034 2.29963 3.40234 2.37925 3.32272C2.45888 3.24309 2.56687 3.19836 2.67948 3.19836H3.22415M5.51994 15.7885L3.22415 3.19836M3.22415 3.19836C3.34411 3.49661 3.54767 3.75453 3.81102 3.94065C4.09381 4.1405 4.43162 4.24772 4.77789 4.24754M3.22415 3.19836L4.77789 4.24754M4.77789 4.24754H4.77784V4.14754L4.77789 4.24754ZM4.77789 4.24754H7.92532M4.77789 4.24754L9.47906 1.94918M9.47906 1.94918H10.0237C10.4676 1.94918 10.8934 2.12552 11.2073 2.43941C11.5212 2.75331 11.6975 3.17904 11.6975 3.62295V5.19671V5.29671H11.5975H10.5483H10.4483V5.19671V3.62295C10.4483 3.51034 10.4036 3.40234 10.324 3.32272C10.2443 3.24309 10.1363 3.19836 10.0237 3.19836H9.47906C9.3591 3.49661 9.15555 3.75453 8.89219 3.94065C8.60941 4.1405 8.2716 4.24772 7.92532 4.24754M9.47906 1.94918C9.3591 1.65092 9.15555 1.393 8.89219 1.20689C8.60942 1.00705 8.27163 0.89983 7.92537 0.9C7.92536 0.9 7.92534 0.9 7.92532 0.9L9.47906 1.94918ZM7.92532 4.24754L7.92537 4.14754M7.92532 4.24754H7.92537V4.14754M7.92537 4.14754C8.25096 4.14771 8.56859 4.04689 8.83448 3.85898C9.10037 3.67107 9.30143 3.40532 9.40996 3.09836L7.92537 4.14754ZM4.35325 2.57377C4.35325 2.46116 4.39798 2.35316 4.47761 2.27354C4.55723 2.19391 4.66523 2.14918 4.77784 2.14918H7.92537C8.03798 2.14918 8.14598 2.19391 8.22561 2.27354C8.30523 2.35316 8.34996 2.46116 8.34996 2.57377C8.34996 2.68638 8.30523 2.79437 8.22561 2.874C8.14598 2.95362 8.03798 2.99836 7.92537 2.99836H4.77784C4.66523 2.99836 4.55723 2.95362 4.47761 2.874C4.39798 2.79437 4.35325 2.68638 4.35325 2.57377Z" fill="#5E5873" stroke="#5E5873" stroke-width="0.2"/>
<path d="M7.92533 6.14609C7.48142 6.14609 7.05569 6.32244 6.7418 6.63633C6.42791 6.95022 6.25156 7.37595 6.25156 7.81986V14.1149C6.25156 14.5588 6.42791 14.9846 6.7418 15.2985C7.05569 15.6124 7.48142 15.7887 7.92533 15.7887H12.122C12.566 15.7887 12.9917 15.6124 13.3056 15.2985C13.6195 14.9846 13.7958 14.5588 13.7958 14.1149V7.81986C13.7958 7.37595 13.6195 6.95022 13.3056 6.63633C12.9917 6.32244 12.566 6.14609 12.122 6.14609H7.92533ZM7.50074 7.81986C7.50074 7.70725 7.54547 7.59926 7.6251 7.51963C7.70473 7.44001 7.81272 7.39527 7.92533 7.39527H12.122C12.2347 7.39527 12.3426 7.44001 12.4223 7.51963C12.5019 7.59926 12.5466 7.70725 12.5466 7.81986V14.1149C12.5466 14.2275 12.5019 14.3355 12.4223 14.4152C12.3426 14.4948 12.2347 14.5395 12.122 14.5395H7.92533C7.81272 14.5395 7.70473 14.4948 7.6251 14.4152C7.54547 14.3355 7.50074 14.2275 7.50074 14.1149V7.81986Z" fill="#5E5873" stroke="#5E5873" stroke-width="0.2"/>
</svg>
