<svg width="21" height="22" viewBox="0 0 21 22" fill="none" xmlns="http://www.w3.org/2000/svg">
<path d="M18.3999 11.66C18.2396 11.4775 18.1512 11.2429 18.1512 11C18.1512 10.7571 18.2396 10.5225 18.3999 10.34L19.6799 8.90002C19.8209 8.74269 19.9085 8.54472 19.9301 8.33452C19.9516 8.12433 19.9061 7.9127 19.7999 7.73002L17.7999 4.27002C17.6948 4.08754 17.5348 3.94289 17.3426 3.8567C17.1505 3.77051 16.9361 3.74718 16.7299 3.79002L14.8499 4.17002C14.6107 4.21945 14.3616 4.17961 14.1498 4.05802C13.9379 3.93643 13.7779 3.7415 13.6999 3.51002L13.0899 1.68002C13.0228 1.4814 12.895 1.30888 12.7245 1.18686C12.5541 1.06484 12.3495 0.999476 12.1399 1.00002H8.1399C7.92183 0.988635 7.70603 1.04894 7.52546 1.17173C7.34489 1.29452 7.20948 1.47304 7.1399 1.68002L6.5799 3.51002C6.5019 3.7415 6.34187 3.93643 6.13001 4.05802C5.91815 4.17961 5.66911 4.21945 5.4299 4.17002L3.4999 3.79002C3.30445 3.7624 3.1052 3.79324 2.92724 3.87866C2.74929 3.96407 2.6006 4.10025 2.4999 4.27002L0.499896 7.73002C0.391056 7.91067 0.342118 8.1211 0.360079 8.33124C0.378039 8.54138 0.461979 8.74046 0.599896 8.90002L1.8699 10.34C2.03022 10.5225 2.11863 10.7571 2.11863 11C2.11863 11.2429 2.03022 11.4775 1.8699 11.66L0.599896 13.1C0.461979 13.2596 0.378039 13.4587 0.360079 13.6688C0.342118 13.8789 0.391056 14.0894 0.499896 14.27L2.4999 17.73C2.60499 17.9125 2.76502 18.0571 2.95715 18.1433C3.14928 18.2295 3.36372 18.2529 3.5699 18.21L5.4499 17.83C5.68911 17.7806 5.93815 17.8204 6.15001 17.942C6.36187 18.0636 6.5219 18.2585 6.5999 18.49L7.2099 20.32C7.27948 20.527 7.41489 20.7055 7.59546 20.8283C7.77603 20.9511 7.99183 21.0114 8.2099 21H12.2099C12.4195 21.0006 12.6241 20.9352 12.7945 20.8132C12.965 20.6912 13.0928 20.5186 13.1599 20.32L13.7699 18.49C13.8479 18.2585 14.0079 18.0636 14.2198 17.942C14.4316 17.8204 14.6807 17.7806 14.9199 17.83L16.7999 18.21C17.0061 18.2529 17.2205 18.2295 17.4126 18.1433C17.6048 18.0571 17.7648 17.9125 17.8699 17.73L19.8699 14.27C19.9761 14.0873 20.0216 13.8757 20.0001 13.6655C19.9785 13.4553 19.8909 13.2573 19.7499 13.1L18.3999 11.66ZM16.9099 13L17.7099 13.9L16.4299 16.12L15.2499 15.88C14.5297 15.7328 13.7805 15.8551 13.1445 16.2238C12.5085 16.5925 12.03 17.1819 11.7999 17.88L11.4199 19H8.8599L8.4999 17.86C8.26975 17.1619 7.79128 16.5725 7.1553 16.2038C6.51932 15.8351 5.77012 15.7128 5.0499 15.86L3.8699 16.1L2.5699 13.89L3.3699 12.99C3.86185 12.44 4.13383 11.7279 4.13383 10.99C4.13383 10.2521 3.86185 9.54004 3.3699 8.99002L2.5699 8.09002L3.8499 5.89002L5.0299 6.13002C5.75012 6.27724 6.49932 6.1549 7.1353 5.78622C7.77128 5.41753 8.24975 4.82818 8.4799 4.13002L8.8599 3.00002H11.4199L11.7999 4.14002C12.03 4.83818 12.5085 5.42753 13.1445 5.79622C13.7805 6.1649 14.5297 6.28724 15.2499 6.14002L16.4299 5.90002L17.7099 8.12002L16.9099 9.02002C16.4235 9.56878 16.1549 10.2767 16.1549 11.01C16.1549 11.7433 16.4235 12.4513 16.9099 13ZM10.1399 7.00002C9.34877 7.00002 8.57541 7.23461 7.91761 7.67414C7.25982 8.11366 6.74713 8.73838 6.44438 9.46928C6.14163 10.2002 6.06241 11.0045 6.21675 11.7804C6.3711 12.5563 6.75206 13.269 7.31147 13.8284C7.87088 14.3879 8.58361 14.7688 9.35954 14.9232C10.1355 15.0775 10.9397 14.9983 11.6706 14.6955C12.4015 14.3928 13.0262 13.8801 13.4658 13.2223C13.9053 12.5645 14.1399 11.7911 14.1399 11C14.1399 9.93915 13.7185 8.92174 12.9683 8.17159C12.2182 7.42144 11.2008 7.00002 10.1399 7.00002ZM10.1399 13C9.74433 13 9.35765 12.8827 9.02876 12.663C8.69986 12.4432 8.44351 12.1308 8.29214 11.7654C8.14076 11.3999 8.10116 10.9978 8.17833 10.6098C8.2555 10.2219 8.44598 9.86551 8.72568 9.5858C9.00539 9.3061 9.36175 9.11562 9.74972 9.03845C10.1377 8.96128 10.5398 9.00088 10.9053 9.15226C11.2707 9.30363 11.5831 9.55998 11.8028 9.88888C12.0226 10.2178 12.1399 10.6045 12.1399 11C12.1399 11.5304 11.9292 12.0392 11.5541 12.4142C11.179 12.7893 10.6703 13 10.1399 13Z" fill="white"/>
</svg>
