<svg width="52" height="52" viewBox="0 0 52 52" fill="none" xmlns="http://www.w3.org/2000/svg">
<path d="M17.3342 14.738L23.25 8.79628V33.5704C23.25 34.2556 23.5222 34.9127 24.0066 35.3971C24.4911 35.8816 25.1482 36.1538 25.8333 36.1538C26.5185 36.1538 27.1756 35.8816 27.66 35.3971C28.1445 34.9127 28.4167 34.2556 28.4167 33.5704V8.79628L34.3325 14.738C34.5727 14.9801 34.8584 15.1723 35.1732 15.3034C35.488 15.4346 35.8256 15.5021 36.1667 15.5021C36.5077 15.5021 36.8454 15.4346 37.1602 15.3034C37.475 15.1723 37.7607 14.9801 38.0008 14.738C38.243 14.4978 38.4352 14.2121 38.5663 13.8973C38.6975 13.5825 38.765 13.2448 38.765 12.9038C38.765 12.5628 38.6975 12.2251 38.5663 11.9103C38.4352 11.5955 38.243 11.3098 38.0008 11.0696L27.6675 0.736285C27.4218 0.501097 27.1321 0.316737 26.815 0.193785C26.1861 -0.064595 25.4806 -0.064595 24.8517 0.193785C24.5346 0.316737 24.2449 0.501097 23.9992 0.736285L13.6658 11.0696C13.425 11.3105 13.2339 11.5964 13.1035 11.9111C12.9732 12.2258 12.9061 12.5631 12.9061 12.9038C12.9061 13.2444 12.9732 13.5817 13.1035 13.8964C13.2339 14.2111 13.425 14.4971 13.6658 14.738C13.9067 14.9788 14.1926 15.1699 14.5074 15.3002C14.8221 15.4306 15.1594 15.4977 15.5 15.4977C15.8406 15.4977 16.1779 15.4306 16.4926 15.3002C16.8074 15.1699 17.0933 14.9788 17.3342 14.738ZM49.0833 25.8204C48.3982 25.8204 47.7411 26.0926 47.2566 26.5771C46.7722 27.0616 46.5 27.7186 46.5 28.4038V43.9038C46.5 44.5889 46.2278 45.246 45.7434 45.7305C45.2589 46.215 44.6018 46.4871 43.9167 46.4871H7.75C7.06486 46.4871 6.40778 46.215 5.92331 45.7305C5.43884 45.246 5.16667 44.5889 5.16667 43.9038V28.4038C5.16667 27.7186 4.8945 27.0616 4.41003 26.5771C3.92556 26.0926 3.26848 25.8204 2.58333 25.8204C1.89819 25.8204 1.24111 26.0926 0.756641 26.5771C0.272172 27.0616 0 27.7186 0 28.4038V43.9038C0 45.9592 0.816516 47.9305 2.26992 49.3839C3.72333 50.8373 5.69457 51.6538 7.75 51.6538H43.9167C45.9721 51.6538 47.9433 50.8373 49.3967 49.3839C50.8502 47.9305 51.6667 45.9592 51.6667 43.9038V28.4038C51.6667 27.7186 51.3945 27.0616 50.91 26.5771C50.4256 26.0926 49.7685 25.8204 49.0833 25.8204Z" fill="#5E5873"/>
</svg>
