<svg width="24" height="24" viewBox="0 0 24 24" fill="none" xmlns="http://www.w3.org/2000/svg">
<path d="M19.8999 12.6614C19.7396 12.4789 19.6512 12.2443 19.6512 12.0014C19.6512 11.7585 19.7396 11.5238 19.8999 11.3414L21.1799 9.90136C21.3209 9.74403 21.4085 9.54606 21.4301 9.33587C21.4516 9.12567 21.4061 8.91405 21.2999 8.73136L19.2999 5.27136C19.1948 5.08888 19.0348 4.94424 18.8426 4.85805C18.6505 4.77186 18.4361 4.74852 18.2299 4.79136L16.3499 5.17136C16.1107 5.22079 15.8616 5.18095 15.6498 5.05936C15.4379 4.93777 15.2779 4.74284 15.1999 4.51136L14.5899 2.68136C14.5228 2.48274 14.395 2.31022 14.2245 2.1882C14.0541 2.06618 13.8495 2.00082 13.6399 2.00136H9.6399C9.42183 1.98998 9.20603 2.05029 9.02546 2.17307C8.84489 2.29586 8.70948 2.47438 8.6399 2.68136L8.0799 4.51136C8.0019 4.74284 7.84187 4.93777 7.63001 5.05936C7.41815 5.18095 7.16911 5.22079 6.9299 5.17136L4.9999 4.79136C4.80445 4.76374 4.6052 4.79458 4.42724 4.88C4.24929 4.96542 4.1006 5.10159 3.9999 5.27136L1.9999 8.73136C1.89106 8.91201 1.84212 9.12245 1.86008 9.33258C1.87804 9.54272 1.96198 9.7418 2.0999 9.90136L3.3699 11.3414C3.53022 11.5238 3.61863 11.7585 3.61863 12.0014C3.61863 12.2443 3.53022 12.4789 3.3699 12.6614L2.0999 14.1014C1.96198 14.2609 1.87804 14.46 1.86008 14.6701C1.84212 14.8803 1.89106 15.0907 1.9999 15.2714L3.9999 18.7314C4.10499 18.9138 4.26502 19.0585 4.45715 19.1447C4.64928 19.2309 4.86372 19.2542 5.0699 19.2114L6.9499 18.8314C7.18911 18.7819 7.43815 18.8218 7.65001 18.9434C7.86187 19.0649 8.0219 19.2599 8.0999 19.4914L8.7099 21.3214C8.77948 21.5283 8.91489 21.7069 9.09546 21.8296C9.27603 21.9524 9.49183 22.0127 9.7099 22.0014H13.7099C13.9195 22.0019 14.1241 21.9365 14.2945 21.8145C14.465 21.6925 14.5928 21.52 14.6599 21.3214L15.2699 19.4914C15.3479 19.2599 15.5079 19.0649 15.7198 18.9434C15.9316 18.8218 16.1807 18.7819 16.4199 18.8314L18.2999 19.2114C18.5061 19.2542 18.7205 19.2309 18.9126 19.1447C19.1048 19.0585 19.2648 18.9138 19.3699 18.7314L21.3699 15.2714C21.4761 15.0887 21.5216 14.877 21.5001 14.6669C21.4785 14.4567 21.3909 14.2587 21.2499 14.1014L19.8999 12.6614ZM18.4099 14.0014L19.2099 14.9014L17.9299 17.1214L16.7499 16.8814C16.0297 16.7341 15.2805 16.8565 14.6445 17.2252C14.0085 17.5938 13.53 18.1832 13.2999 18.8814L12.9199 20.0014H10.3599L9.9999 18.8614C9.76975 18.1632 9.29128 17.5738 8.6553 17.2052C8.01932 16.8365 7.27012 16.7141 6.5499 16.8614L5.3699 17.1014L4.0699 14.8914L4.8699 13.9914C5.36185 13.4413 5.63383 12.7293 5.63383 11.9914C5.63383 11.2534 5.36185 10.5414 4.8699 9.99136L4.0699 9.09136L5.3499 6.89136L6.5299 7.13136C7.25012 7.27858 7.99932 7.15624 8.6353 6.78756C9.27128 6.41888 9.74975 5.82952 9.9799 5.13136L10.3599 4.00136H12.9199L13.2999 5.14136C13.53 5.83952 14.0085 6.42888 14.6445 6.79756C15.2805 7.16624 16.0297 7.28858 16.7499 7.14136L17.9299 6.90136L19.2099 9.12136L18.4099 10.0214C17.9235 10.5701 17.6549 11.278 17.6549 12.0114C17.6549 12.7447 17.9235 13.4526 18.4099 14.0014ZM11.6399 8.00136C10.8488 8.00136 10.0754 8.23596 9.41761 8.67548C8.75982 9.11501 8.24713 9.73972 7.94438 10.4706C7.64163 11.2015 7.56241 12.0058 7.71675 12.7817C7.8711 13.5576 8.25206 14.2704 8.81147 14.8298C9.37088 15.3892 10.0836 15.7702 10.8595 15.9245C11.6355 16.0788 12.4397 15.9996 13.1706 15.6969C13.9015 15.3941 14.5262 14.8814 14.9658 14.2236C15.4053 13.5658 15.6399 12.7925 15.6399 12.0014C15.6399 10.9405 15.2185 9.92308 14.4683 9.17293C13.7182 8.42279 12.7008 8.00136 11.6399 8.00136ZM11.6399 14.0014C11.2443 14.0014 10.8577 13.8841 10.5288 13.6643C10.1999 13.4445 9.94351 13.1322 9.79214 12.7667C9.64076 12.4013 9.60116 11.9991 9.67833 11.6112C9.7555 11.2232 9.94598 10.8669 10.2257 10.5871C10.5054 10.3074 10.8618 10.117 11.2497 10.0398C11.6377 9.96262 12.0398 10.0022 12.4053 10.1536C12.7707 10.305 13.0831 10.5613 13.3028 10.8902C13.5226 11.2191 13.6399 11.6058 13.6399 12.0014C13.6399 12.5318 13.4292 13.0405 13.0541 13.4156C12.679 13.7906 12.1703 14.0014 11.6399 14.0014Z" fill="white"/>
</svg>
