<svg width="29" height="36" viewBox="0 0 29 36" fill="none" xmlns="http://www.w3.org/2000/svg">
<path fill-rule="evenodd" clip-rule="evenodd" d="M2.5 0H18.5L29 11V33.5C29 35 28.5 36 27 36H2.5C1 36 0.166667 34.8333 0 34V2.5C0.4 0.9 1.83333 0.166667 2.5 0ZM17 11.5V4.20711C17 3.76165 17.5386 3.53857 17.8536 3.85355L25.1464 11.1464C25.4614 11.4614 25.2383 12 24.7929 12H17.5C17.2239 12 17 11.7761 17 11.5ZM13.2695 29.1016V26.2842H10.4668V27.3291H11.8047V28.5889C11.7526 28.641 11.6777 28.6963 11.5801 28.7549C11.4857 28.8102 11.3604 28.8574 11.2041 28.8965C11.0511 28.9355 10.859 28.9551 10.6279 28.9551C10.3512 28.9551 10.1087 28.9062 9.90039 28.8086C9.69206 28.7109 9.51628 28.5661 9.37305 28.374C9.23307 28.1787 9.12728 27.9395 9.05566 27.6562C8.98405 27.3698 8.94824 27.041 8.94824 26.6699V26.2158C8.94824 25.8415 8.98242 25.5127 9.05078 25.2295C9.11914 24.9463 9.21842 24.7087 9.34863 24.5166C9.47884 24.3245 9.63835 24.1797 9.82715 24.082C10.0192 23.9811 10.2373 23.9307 10.4814 23.9307C10.7777 23.9307 11.0186 23.9811 11.2041 24.082C11.3929 24.1829 11.5378 24.3229 11.6387 24.502C11.7396 24.681 11.8079 24.891 11.8438 25.1318H13.2646C13.2158 24.6761 13.0856 24.2725 12.874 23.9209C12.6657 23.5661 12.363 23.2894 11.9658 23.0908C11.5687 22.889 11.0609 22.7881 10.4424 22.7881C9.99642 22.7881 9.59115 22.8646 9.22656 23.0176C8.86198 23.1706 8.54785 23.3936 8.28418 23.6865C8.02051 23.9795 7.81706 24.3392 7.67383 24.7656C7.53385 25.1921 7.46387 25.6787 7.46387 26.2256V26.6699C7.46387 27.2168 7.53711 27.7035 7.68359 28.1299C7.83008 28.5531 8.03841 28.9111 8.30859 29.2041C8.58203 29.4971 8.90755 29.7201 9.28516 29.873C9.66276 30.0228 10.0811 30.0977 10.54 30.0977C11.0576 30.0977 11.4987 30.0423 11.8633 29.9316C12.2279 29.821 12.5257 29.6891 12.7568 29.5361C12.988 29.3799 13.1589 29.235 13.2695 29.1016ZM16.0088 30V22.8906H14.5488V30H16.0088ZM18.8457 25.9277V24.0381H22.0195V22.8906H18.8457H18.4453H17.3809V30H18.8457V27.0703H21.6777V25.9277H18.8457Z" fill="#7367F0"/>
</svg>
