<svg width="29" height="36" viewBox="0 0 29 36" fill="none" xmlns="http://www.w3.org/2000/svg">
<path fill-rule="evenodd" clip-rule="evenodd" d="M2.5 0H18.5L29 11V33.5C29 35 28.5 36 27 36H2.5C1 36 0.166667 34.8333 0 34V2.5C0.4 0.9 1.83333 0.166667 2.5 0ZM17 11.5V4.20711C17 3.76165 17.5386 3.53857 17.8536 3.85355L25.1464 11.1464C25.4614 11.4614 25.2383 12 24.7929 12H17.5C17.2239 12 17 11.7761 17 11.5ZM11.2695 29.1016V26.2842H8.4668V27.3291H9.80469V28.5889C9.7526 28.641 9.67773 28.6963 9.58008 28.7549C9.48568 28.8102 9.36035 28.8574 9.2041 28.8965C9.05111 28.9355 8.85905 28.9551 8.62793 28.9551C8.35124 28.9551 8.10872 28.9062 7.90039 28.8086C7.69206 28.7109 7.51628 28.5661 7.37305 28.374C7.23307 28.1787 7.12728 27.9395 7.05566 27.6562C6.98405 27.3698 6.94824 27.041 6.94824 26.6699V26.2158C6.94824 25.8415 6.98242 25.5127 7.05078 25.2295C7.11914 24.9463 7.21842 24.7087 7.34863 24.5166C7.47884 24.3245 7.63835 24.1797 7.82715 24.082C8.01921 23.9811 8.2373 23.9307 8.48145 23.9307C8.77767 23.9307 9.01855 23.9811 9.2041 24.082C9.3929 24.1829 9.53776 24.3229 9.63867 24.502C9.73958 24.681 9.80794 24.891 9.84375 25.1318H11.2646C11.2158 24.6761 11.0856 24.2725 10.874 23.9209C10.6657 23.5661 10.363 23.2894 9.96582 23.0908C9.56868 22.889 9.06087 22.7881 8.44238 22.7881C7.99642 22.7881 7.59115 22.8646 7.22656 23.0176C6.86198 23.1706 6.54785 23.3936 6.28418 23.6865C6.02051 23.9795 5.81706 24.3392 5.67383 24.7656C5.53385 25.1921 5.46387 25.6787 5.46387 26.2256V26.6699C5.46387 27.2168 5.53711 27.7035 5.68359 28.1299C5.83008 28.5531 6.03841 28.9111 6.30859 29.2041C6.58203 29.4971 6.90755 29.7201 7.28516 29.873C7.66276 30.0228 8.08105 30.0977 8.54004 30.0977C9.05762 30.0977 9.4987 30.0423 9.86328 29.9316C10.2279 29.821 10.5257 29.6891 10.7568 29.5361C10.988 29.3799 11.1589 29.235 11.2695 29.1016ZM17.0215 30V28.8574H13.916V22.8906H12.4512V30H13.4424H13.916H17.0215ZM19.3262 26.8799V28.8574H20.5811C20.8382 28.8574 21.0482 28.8167 21.2109 28.7354C21.3737 28.6507 21.4941 28.5368 21.5723 28.3936C21.6504 28.2503 21.6895 28.0859 21.6895 27.9004C21.6895 27.6921 21.6536 27.5114 21.582 27.3584C21.5137 27.2054 21.403 27.0882 21.25 27.0068C21.097 26.9222 20.8952 26.8799 20.6445 26.8799H19.3262ZM21.9786 26.3349C22.0456 26.3081 22.1087 26.2782 22.168 26.2451C22.4512 26.0889 22.6579 25.887 22.7881 25.6396C22.9215 25.3923 22.9883 25.1221 22.9883 24.8291C22.9883 24.4971 22.9281 24.2106 22.8076 23.9697C22.6872 23.7256 22.513 23.5238 22.2852 23.3643C22.0573 23.2048 21.779 23.0859 21.4502 23.0078C21.1247 22.9297 20.7552 22.8906 20.3418 22.8906H17.8613V30H18.418H19.3262H20.5811C21.1312 30 21.5967 29.9219 21.9775 29.7656C22.3617 29.6094 22.653 29.3766 22.8516 29.0674C23.0501 28.7549 23.1494 28.3708 23.1494 27.915C23.1494 27.6286 23.0876 27.36 22.9639 27.1094C22.8434 26.8587 22.6497 26.6553 22.3828 26.499C22.265 26.4277 22.1303 26.373 21.9786 26.3349ZM20.3418 25.874C20.612 25.874 20.8333 25.8398 21.0059 25.7715C21.1784 25.6999 21.307 25.5973 21.3916 25.4639C21.4795 25.3271 21.5234 25.1611 21.5234 24.9658C21.5234 24.7445 21.4811 24.5654 21.3965 24.4287C21.3151 24.292 21.1865 24.1927 21.0107 24.1309C20.8382 24.069 20.6152 24.0381 20.3418 24.0381H19.3262V25.874H20.3418Z" fill="#7367F0"/>
</svg>
