<svg width="29" height="36" viewBox="0 0 29 36" fill="none" xmlns="http://www.w3.org/2000/svg">
<path fill-rule="evenodd" clip-rule="evenodd" d="M2.5 0H18.5L29 11V33.5C29 35 28.5 36 27 36H2.5C1 36 0.166667 34.8333 0 34V2.5C0.4 0.9 1.83333 0.166667 2.5 0ZM17 11.5V4.20711C17 3.76165 17.5386 3.53857 17.8536 3.85355L25.1464 11.1464C25.4614 11.4614 25.2383 12 24.7929 12H17.5C17.2239 12 17 11.7761 17 11.5ZM5.51074 22.8906V27.8174C5.51074 28.0615 5.47168 28.2682 5.39355 28.4375C5.31869 28.6068 5.21289 28.7354 5.07617 28.8232C4.93945 28.9111 4.77832 28.9551 4.59277 28.9551C4.40072 28.9551 4.23633 28.9225 4.09961 28.8574C3.96289 28.7923 3.8571 28.6833 3.78223 28.5303C3.71061 28.3773 3.6748 28.1706 3.6748 27.9102H2.20508C2.20508 28.4082 2.30762 28.82 2.5127 29.1455C2.71777 29.4678 2.99935 29.707 3.35742 29.8633C3.71549 30.0195 4.12728 30.0977 4.59277 30.0977C5.04199 30.0977 5.44564 30.0065 5.80371 29.8242C6.16504 29.6419 6.44987 29.3815 6.6582 29.043C6.86654 28.7012 6.9707 28.2926 6.9707 27.8174V22.8906H5.51074ZM12.9912 30V28.8574H9.68555V26.8994H12.498V25.7861H9.68555V24.0381H12.9863V22.8906H9.68555H9.20703H8.2207V30H9.20703H9.68555H12.9912ZM15.3105 27.4658H16.6143C17.1709 27.4658 17.6478 27.3747 18.0449 27.1924C18.4453 27.0101 18.7513 26.7513 18.9629 26.416C19.1745 26.0807 19.2803 25.6836 19.2803 25.2246C19.2803 24.7721 19.1745 24.3701 18.9629 24.0186C18.7513 23.667 18.4453 23.3919 18.0449 23.1934C17.6478 22.9915 17.1709 22.8906 16.6143 22.8906H13.8457V30H15.3105V27.4658ZM15.3105 26.3232V24.0381H16.6143C16.8942 24.0381 17.1221 24.0934 17.2979 24.2041C17.4736 24.3148 17.6022 24.4613 17.6836 24.6436C17.765 24.8258 17.8057 25.0228 17.8057 25.2344C17.8057 25.4427 17.765 25.6299 17.6836 25.7959C17.6022 25.9619 17.4736 26.0921 17.2979 26.1865C17.1221 26.2777 16.8942 26.3232 16.6143 26.3232H15.3105ZM25.9258 29.1016V26.2842H23.123V27.3291H24.4609V28.5889C24.4089 28.641 24.334 28.6963 24.2363 28.7549C24.1419 28.8102 24.0166 28.8574 23.8604 28.8965C23.7074 28.9355 23.5153 28.9551 23.2842 28.9551C23.0075 28.9551 22.765 28.9062 22.5566 28.8086C22.3483 28.7109 22.1725 28.5661 22.0293 28.374C21.8893 28.1787 21.7835 27.9395 21.7119 27.6562C21.6403 27.3698 21.6045 27.041 21.6045 26.6699V26.2158C21.6045 25.8415 21.6387 25.5127 21.707 25.2295C21.7754 24.9463 21.8747 24.7087 22.0049 24.5166C22.1351 24.3245 22.2946 24.1797 22.4834 24.082C22.6755 23.9811 22.8936 23.9307 23.1377 23.9307C23.4339 23.9307 23.6748 23.9811 23.8604 24.082C24.0492 24.1829 24.194 24.3229 24.2949 24.502C24.3958 24.681 24.4642 24.891 24.5 25.1318H25.9209C25.8721 24.6761 25.7419 24.2725 25.5303 23.9209C25.3219 23.5661 25.0192 23.2894 24.6221 23.0908C24.2249 22.889 23.7171 22.7881 23.0986 22.7881C22.6527 22.7881 22.2474 22.8646 21.8828 23.0176C21.5182 23.1706 21.2041 23.3936 20.9404 23.6865C20.6768 23.9795 20.4733 24.3392 20.3301 24.7656C20.1901 25.1921 20.1201 25.6787 20.1201 26.2256V26.6699C20.1201 27.2168 20.1934 27.7035 20.3398 28.1299C20.4863 28.5531 20.6947 28.9111 20.9648 29.2041C21.2383 29.4971 21.5638 29.7201 21.9414 29.873C22.319 30.0228 22.7373 30.0977 23.1963 30.0977C23.7139 30.0977 24.1549 30.0423 24.5195 29.9316C24.8841 29.821 25.182 29.6891 25.4131 29.5361C25.6442 29.3799 25.8151 29.235 25.9258 29.1016Z" fill="#7367F0"/>
</svg>
