<svg width="29" height="36" viewBox="0 0 29 36" fill="none" xmlns="http://www.w3.org/2000/svg">
<path fill-rule="evenodd" clip-rule="evenodd" d="M2.5 0H18.5L29 11V33.5C29 35 28.5 36 27 36H2.5C1 36 0.166667 34.8333 0 34V2.5C0.4 0.9 1.83333 0.166667 2.5 0ZM17 11.5V4.20711C17 3.76165 17.5386 3.53857 17.8536 3.85355L25.1464 11.1464C25.4614 11.4614 25.2383 12 24.7929 12H17.5C17.2239 12 17 11.7761 17 11.5ZM8.51074 22.8906V27.8174C8.51074 28.0615 8.47168 28.2682 8.39355 28.4375C8.31868 28.6068 8.21289 28.7354 8.07617 28.8232C7.93945 28.9111 7.77832 28.9551 7.59277 28.9551C7.40072 28.9551 7.23633 28.9225 7.09961 28.8574C6.96289 28.7923 6.8571 28.6833 6.78223 28.5303C6.71061 28.3773 6.6748 28.1706 6.6748 27.9102H5.20508C5.20508 28.4082 5.30762 28.82 5.5127 29.1455C5.71777 29.4678 5.99935 29.707 6.35742 29.8633C6.71549 30.0195 7.12728 30.0977 7.59277 30.0977C8.04199 30.0977 8.44564 30.0065 8.80371 29.8242C9.16504 29.6419 9.44987 29.3815 9.6582 29.043C9.86654 28.7012 9.9707 28.2926 9.9707 27.8174V22.8906H8.51074ZM12.6855 27.4658H13.9893C14.5459 27.4658 15.0228 27.3747 15.4199 27.1924C15.8203 27.0101 16.1263 26.7513 16.3379 26.416C16.5495 26.0807 16.6553 25.6836 16.6553 25.2246C16.6553 24.7721 16.5495 24.3701 16.3379 24.0186C16.1263 23.667 15.8203 23.3919 15.4199 23.1934C15.0228 22.9915 14.5459 22.8906 13.9893 22.8906H11.2207V30H12.6855V27.4658ZM12.6855 26.3232V24.0381H13.9893C14.2692 24.0381 14.4971 24.0934 14.6729 24.2041C14.8486 24.3148 14.9772 24.4613 15.0586 24.6436C15.14 24.8258 15.1807 25.0228 15.1807 25.2344C15.1807 25.4427 15.14 25.6299 15.0586 25.7959C14.9772 25.9619 14.8486 26.0921 14.6729 26.1865C14.4971 26.2777 14.2692 26.3232 13.9893 26.3232H12.6855ZM23.3008 29.1016V26.2842H20.498V27.3291H21.8359V28.5889C21.7839 28.641 21.709 28.6963 21.6113 28.7549C21.5169 28.8102 21.3916 28.8574 21.2354 28.8965C21.0824 28.9355 20.8903 28.9551 20.6592 28.9551C20.3825 28.9551 20.14 28.9062 19.9316 28.8086C19.7233 28.7109 19.5475 28.5661 19.4043 28.374C19.2643 28.1787 19.1585 27.9395 19.0869 27.6562C19.0153 27.3698 18.9795 27.041 18.9795 26.6699V26.2158C18.9795 25.8415 19.0137 25.5127 19.082 25.2295C19.1504 24.9463 19.2497 24.7087 19.3799 24.5166C19.5101 24.3245 19.6696 24.1797 19.8584 24.082C20.0505 23.9811 20.2686 23.9307 20.5127 23.9307C20.8089 23.9307 21.0498 23.9811 21.2354 24.082C21.4242 24.1829 21.569 24.3229 21.6699 24.502C21.7708 24.681 21.8392 24.891 21.875 25.1318H23.2959C23.2471 24.6761 23.1169 24.2725 22.9053 23.9209C22.6969 23.5661 22.3942 23.2894 21.9971 23.0908C21.5999 22.889 21.0921 22.7881 20.4736 22.7881C20.0277 22.7881 19.6224 22.8646 19.2578 23.0176C18.8932 23.1706 18.5791 23.3936 18.3154 23.6865C18.0518 23.9795 17.8483 24.3392 17.7051 24.7656C17.5651 25.1921 17.4951 25.6787 17.4951 26.2256V26.6699C17.4951 27.2168 17.5684 27.7035 17.7148 28.1299C17.8613 28.5531 18.0697 28.9111 18.3398 29.2041C18.6133 29.4971 18.9388 29.7201 19.3164 29.873C19.694 30.0228 20.1123 30.0977 20.5713 30.0977C21.0889 30.0977 21.5299 30.0423 21.8945 29.9316C22.2591 29.821 22.557 29.6891 22.7881 29.5361C23.0192 29.3799 23.1901 29.235 23.3008 29.1016Z" fill="#7367F0"/>
</svg>
