<svg width="29" height="36" viewBox="0 0 29 36" fill="none" xmlns="http://www.w3.org/2000/svg">
<path fill-rule="evenodd" clip-rule="evenodd" d="M2.5 0H18.5L29 11V33.5C29 35 28.5 36 27 36H2.5C1 36 0.166667 34.8333 0 34V2.5C0.4 0.9 1.83333 0.166667 2.5 0ZM17 11.5V4.20711C17 3.76165 17.5386 3.53857 17.8536 3.85355L25.1464 11.1464C25.4614 11.4614 25.2383 12 24.7929 12H17.5C17.2239 12 17 11.7761 17 11.5ZM6.54395 22.8906H5.87012H5.30371H4.63477V30H6.09473V27.9785L5.94897 24.6767L7.87207 30H8.86816L10.7913 24.6767L10.6455 27.9785V30H12.1104V22.8906H11.4365H10.8701H10.1963L8.37012 28.1104L6.54395 22.8906ZM14.8594 27.4658H16.1631C16.7197 27.4658 17.1966 27.3747 17.5938 27.1924C17.9941 27.0101 18.3001 26.7513 18.5117 26.416C18.7233 26.0807 18.8291 25.6836 18.8291 25.2246C18.8291 24.7721 18.7233 24.3701 18.5117 24.0186C18.3001 23.667 17.9941 23.3919 17.5938 23.1934C17.1966 22.9915 16.7197 22.8906 16.1631 22.8906H13.3945V30H14.8594V27.4658ZM14.8594 26.3232V24.0381H16.1631C16.443 24.0381 16.6709 24.0934 16.8467 24.2041C17.0225 24.3148 17.151 24.4613 17.2324 24.6436C17.3138 24.8258 17.3545 25.0228 17.3545 25.2344C17.3545 25.4427 17.3138 25.6299 17.2324 25.7959C17.151 25.9619 17.0225 26.0921 16.8467 26.1865C16.6709 26.2777 16.443 26.3232 16.1631 26.3232H14.8594ZM21.8857 25.835H21.1338V26.1768V26.582V26.9043H21.8857C22.1266 26.9043 22.335 26.9417 22.5107 27.0166C22.6865 27.0915 22.8216 27.2087 22.916 27.3682C23.0104 27.5244 23.0576 27.7327 23.0576 27.9932C23.0576 28.195 23.0137 28.3724 22.9258 28.5254C22.8411 28.6751 22.7174 28.7923 22.5547 28.877C22.3952 28.9583 22.2031 28.999 21.9785 28.999C21.7799 28.999 21.5993 28.9583 21.4365 28.877C21.277 28.7956 21.1517 28.6833 21.0605 28.54C20.9694 28.3968 20.9238 28.234 20.9238 28.0518H19.5127C19.5127 28.4033 19.5811 28.7077 19.7178 28.9648C19.8577 29.2188 20.0433 29.4303 20.2744 29.5996C20.5088 29.7656 20.7692 29.891 21.0557 29.9756C21.3454 30.057 21.64 30.0977 21.9395 30.0977C22.3008 30.0977 22.6344 30.0521 22.9404 29.9609C23.2464 29.8665 23.5133 29.7298 23.7412 29.5508C23.9723 29.3717 24.1514 29.1536 24.2783 28.8965C24.4053 28.6361 24.4688 28.3398 24.4688 28.0078C24.4688 27.7376 24.4183 27.4919 24.3174 27.2705C24.2165 27.0459 24.0667 26.8522 23.8682 26.6895C23.698 26.5472 23.4931 26.4336 23.2536 26.3487C23.4406 26.2618 23.6048 26.1573 23.7461 26.0352C23.9414 25.8659 24.0911 25.6771 24.1953 25.4688C24.2995 25.2572 24.3516 25.0391 24.3516 24.8145C24.3516 24.3717 24.2507 24.0007 24.0488 23.7012C23.847 23.4017 23.5654 23.1755 23.2041 23.0225C22.8428 22.8662 22.4212 22.7881 21.9395 22.7881C21.513 22.7881 21.1224 22.8695 20.7676 23.0322C20.4128 23.195 20.1296 23.4212 19.918 23.7109C19.7096 24.0007 19.6055 24.3408 19.6055 24.7314H21.0166C21.0166 24.5557 21.0605 24.4059 21.1484 24.2822C21.2363 24.1585 21.3535 24.0625 21.5 23.9941C21.6465 23.9258 21.806 23.8916 21.9785 23.8916C22.1966 23.8916 22.3773 23.9323 22.5205 24.0137C22.6637 24.0918 22.7695 24.2025 22.8379 24.3457C22.9095 24.4857 22.9453 24.6468 22.9453 24.8291C22.9453 25.0309 22.9062 25.2083 22.8281 25.3613C22.7533 25.5111 22.6377 25.6283 22.4814 25.7129C22.3252 25.7943 22.1266 25.835 21.8857 25.835Z" fill="#7367F0"/>
</svg>
