<svg width="29" height="36" viewBox="0 0 29 36" fill="none" xmlns="http://www.w3.org/2000/svg">
<path fill-rule="evenodd" clip-rule="evenodd" d="M2.5 0H18.5L29 11V33.5C29 35 28.5 36 27 36H2.5C1 36 0.166667 34.8333 0 34V2.5C0.4 0.9 1.83333 0.166667 2.5 0ZM17 11.5V4.20711C17 3.76165 17.5386 3.53857 17.8536 3.85355L25.1464 11.1464C25.4614 11.4614 25.2383 12 24.7929 12H17.5C17.2239 12 17 11.7761 17 11.5ZM6.54395 22.8906H5.87012H5.30371H4.63477V30H6.09473V27.9785L5.94897 24.6767L7.87207 30H8.86816L10.7913 24.6767L10.6455 27.9785V30H12.1104V22.8906H11.4365H10.8701H10.1963L8.37012 28.1104L6.54395 22.8906ZM14.8594 27.4658H16.1631C16.7197 27.4658 17.1966 27.3747 17.5938 27.1924C17.9941 27.0101 18.3001 26.7513 18.5117 26.416C18.7233 26.0807 18.8291 25.6836 18.8291 25.2246C18.8291 24.7721 18.7233 24.3701 18.5117 24.0186C18.3001 23.667 17.9941 23.3919 17.5938 23.1934C17.1966 22.9915 16.7197 22.8906 16.1631 22.8906H13.3945V30H14.8594V27.4658ZM14.8594 26.3232V24.0381H16.1631C16.443 24.0381 16.6709 24.0934 16.8467 24.2041C17.0225 24.3148 17.151 24.4613 17.2324 24.6436C17.3138 24.8258 17.3545 25.0228 17.3545 25.2344C17.3545 25.4427 17.3138 25.6299 17.2324 25.7959C17.151 25.9619 17.0225 26.0921 16.8467 26.1865C16.6709 26.2777 16.443 26.3232 16.1631 26.3232H14.8594ZM24.6738 28.4473V27.3438H23.8682V22.8906H23.5654H22.4619H22.4473L19.4834 27.5928L19.5518 28.4473H22.4619V30H23.8682V28.4473H24.6738ZM22.4619 24.7372L22.3545 24.917L20.8799 27.3438H22.4619V24.7372Z" fill="#7367F0"/>
</svg>
