<svg width="29" height="36" viewBox="0 0 29 36" fill="none" xmlns="http://www.w3.org/2000/svg">
<path fill-rule="evenodd" clip-rule="evenodd" d="M2.5 0H18.5L29 11V33.5C29 35 28.5 36 27 36H2.5C1 36 0.166667 34.8333 0 34V2.5C0.4 0.9 1.83333 0.166667 2.5 0ZM17 11.5V4.20711C17 3.76165 17.5386 3.53857 17.8536 3.85355L25.1464 11.1464C25.4614 11.4614 25.2383 12 24.7929 12H17.5C17.2239 12 17 11.7761 17 11.5ZM6.09961 27.4658H7.40332C7.95996 27.4658 8.43685 27.3747 8.83398 27.1924C9.23438 27.0101 9.54036 26.7513 9.75195 26.416C9.96354 26.0807 10.0693 25.6836 10.0693 25.2246C10.0693 24.7721 9.96354 24.3701 9.75195 24.0186C9.54036 23.667 9.23438 23.3919 8.83398 23.1934C8.43685 22.9915 7.95996 22.8906 7.40332 22.8906H4.63477V30H6.09961V27.4658ZM6.09961 26.3232V24.0381H7.40332C7.68327 24.0381 7.91113 24.0934 8.08691 24.2041C8.2627 24.3148 8.39128 24.4613 8.47266 24.6436C8.55404 24.8258 8.59473 25.0228 8.59473 25.2344C8.59473 25.4427 8.55404 25.6299 8.47266 25.7959C8.39128 25.9619 8.2627 26.0921 8.08691 26.1865C7.91113 26.2777 7.68327 26.3232 7.40332 26.3232H6.09961ZM16.8662 30V22.8906H15.4062V27.6611L12.5449 22.8906H11.0801V30H12.5449V25.2344L15.4014 30H16.8662ZM23.7754 29.1016V26.2842H20.9727V27.3291H22.3105V28.5889C22.2585 28.641 22.1836 28.6963 22.0859 28.7549C21.9915 28.8102 21.8662 28.8574 21.71 28.8965C21.557 28.9355 21.3649 28.9551 21.1338 28.9551C20.8571 28.9551 20.6146 28.9062 20.4062 28.8086C20.1979 28.7109 20.0221 28.5661 19.8789 28.374C19.7389 28.1787 19.6331 27.9395 19.5615 27.6562C19.4899 27.3698 19.4541 27.041 19.4541 26.6699V26.2158C19.4541 25.8415 19.4883 25.5127 19.5566 25.2295C19.625 24.9463 19.7243 24.7087 19.8545 24.5166C19.9847 24.3245 20.1442 24.1797 20.333 24.082C20.5251 23.9811 20.7432 23.9307 20.9873 23.9307C21.2835 23.9307 21.5244 23.9811 21.71 24.082C21.8988 24.1829 22.0436 24.3229 22.1445 24.502C22.2454 24.681 22.3138 24.891 22.3496 25.1318H23.7705C23.7217 24.6761 23.5915 24.2725 23.3799 23.9209C23.1715 23.5661 22.8688 23.2894 22.4717 23.0908C22.0745 22.889 21.5667 22.7881 20.9482 22.7881C20.5023 22.7881 20.097 22.8646 19.7324 23.0176C19.3678 23.1706 19.0537 23.3936 18.79 23.6865C18.5264 23.9795 18.3229 24.3392 18.1797 24.7656C18.0397 25.1921 17.9697 25.6787 17.9697 26.2256V26.6699C17.9697 27.2168 18.043 27.7035 18.1895 28.1299C18.3359 28.5531 18.5443 28.9111 18.8145 29.2041C19.0879 29.4971 19.4134 29.7201 19.791 29.873C20.1686 30.0228 20.5869 30.0977 21.0459 30.0977C21.5635 30.0977 22.0046 30.0423 22.3691 29.9316C22.7337 29.821 23.0316 29.6891 23.2627 29.5361C23.4938 29.3799 23.6647 29.235 23.7754 29.1016Z" fill="#7367F0"/>
</svg>
