<svg width="29" height="36" viewBox="0 0 29 36" fill="none" xmlns="http://www.w3.org/2000/svg">
<path fill-rule="evenodd" clip-rule="evenodd" d="M2.5 0H18.5L29 11V33.5C29 35 28.5 36 27 36H2.5C1 36 0.166667 34.8333 0 34V2.5C0.4 0.9 1.83333 0.166667 2.5 0ZM17 11.5V4.20711C17 3.76165 17.5386 3.53857 17.8536 3.85355L25.1464 11.1464C25.4614 11.4614 25.2383 12 24.7929 12H17.5C17.2239 12 17 11.7761 17 11.5ZM6.37793 30H5.74805L4.1709 22.8906H5.62109L6.59176 27.8451L7.76465 22.8906H8.21387H8.55566H9L10.1762 27.8451L11.1387 22.8906H12.5889L11.0166 30H10.3867H10.0693H9.53711L8.37906 25.3343L7.22754 30H6.69531H6.37793ZM16.2021 22.8906H16.5732L19.2295 30H17.667L17.1739 28.501H14.6188L14.127 30H12.5693L15.2109 22.8906H15.5723H16.2021ZM14.9952 27.3535H16.7965L15.8947 24.6118L14.9952 27.3535ZM21.8076 30H21.3486L18.8877 22.8906H20.5088L22.1153 28.3021L23.7266 22.8906H25.3574L22.8818 30H22.4326H21.8076Z" fill="#7367F0"/>
</svg>
