<svg width="29" height="36" viewBox="0 0 29 36" fill="none" xmlns="http://www.w3.org/2000/svg">
<path fill-rule="evenodd" clip-rule="evenodd" d="M2.5 0H18.5L29 11V33.5C29 35 28.5 36 27 36H2.5C1 36 0.166667 34.8333 0 34V2.5C0.4 0.9 1.83333 0.166667 2.5 0ZM17 11.5V4.20711C17 3.76165 17.5386 3.53857 17.8536 3.85355L25.1464 11.1464C25.4614 11.4614 25.2383 12 24.7929 12H17.5C17.2239 12 17 11.7761 17 11.5ZM12.7764 30V28.8574H9.1703L12.7031 23.7061V22.8906H12.2002H11.707H7.36133V24.0381H10.9108L7.35645 29.1602V30H7.7373H8.38672H12.7764ZM15.2666 30V22.8906H13.8066V30H15.2666ZM18.1035 27.4658H19.4072C19.9639 27.4658 20.4408 27.3747 20.8379 27.1924C21.2383 27.0101 21.5443 26.7513 21.7559 26.416C21.9674 26.0807 22.0732 25.6836 22.0732 25.2246C22.0732 24.7721 21.9674 24.3701 21.7559 24.0186C21.5443 23.667 21.2383 23.3919 20.8379 23.1934C20.4408 22.9915 19.9639 22.8906 19.4072 22.8906H16.6387V30H18.1035V27.4658ZM18.1035 26.3232V24.0381H19.4072C19.6872 24.0381 19.915 24.0934 20.0908 24.2041C20.2666 24.3148 20.3952 24.4613 20.4766 24.6436C20.5579 24.8258 20.5986 25.0228 20.5986 25.2344C20.5986 25.4427 20.5579 25.6299 20.4766 25.7959C20.3952 25.9619 20.2666 26.0921 20.0908 26.1865C19.915 26.2777 19.6872 26.3232 19.4072 26.3232H18.1035Z" fill="#7367F0"/>
</svg>
