<svg width="115" height="27" viewBox="0 0 115 27" fill="none" xmlns="http://www.w3.org/2000/svg">
<path d="M14.2656 16.0469V26.082Z" fill="white"/>
<path d="M14.2656 16.0469V26.082" stroke="white" stroke-width="1.5"/>
<path d="M16.1992 13.0267L24.7244 6.98828Z" fill="white"/>
<path d="M16.1992 13.0267L24.7244 6.98828" stroke="white" stroke-width="1.5"/>
<path d="M3.78125 6.98828L12.0274 12.7555C14.1468 14.2379 12.2593 12.9173 12.2593 12.9173" fill="white"/>
<path d="M3.78125 6.98828L12.0274 12.7555C14.1468 14.2379 12.2593 12.9173 12.2593 12.9173" stroke="white" stroke-width="1.5"/>
<path d="M14.252 10.2262V1.01562Z" fill="white"/>
<path d="M14.252 10.2262V1.01562" stroke="white" stroke-width="1.5"/>
<path d="M17.4043 15.7109L24.8633 19.7656Z" fill="white"/>
<path d="M17.4043 15.7109L24.8633 19.7656" stroke="white" stroke-width="1.5"/>
<path d="M11.7914 15.4854L3.4799 19.7661Z" fill="white"/>
<path d="M11.7914 15.4854L3.4799 19.7661" stroke="white" stroke-width="1.5"/>
<path d="M14.2508 25.9267C21.02 25.9267 26.5075 20.4079 26.5075 13.6001C26.5075 6.79226 21.02 1.27344 14.2508 1.27344C7.48163 1.27344 1.99414 6.79226 1.99414 13.6001C1.99414 20.4079 7.48163 25.9267 14.2508 25.9267Z" stroke="white" stroke-width="1.5"/>
<path d="M14.2531 9.29688L18.1506 16.2491H10.3555L14.2531 9.29688Z" fill="white"/>
<path d="M8.45314 5.06831C9.8263 5.06831 10.9395 3.93373 10.9395 2.53415C10.9395 1.13458 9.8263 0 8.45314 0C7.07997 0 5.9668 1.13458 5.9668 2.53415C5.9668 3.93373 7.07997 5.06831 8.45314 5.06831Z" fill="white"/>
<path d="M20.3887 5.06831C21.7618 5.06831 22.875 3.93373 22.875 2.53415C22.875 1.13458 21.7618 0 20.3887 0C19.0155 0 17.9023 1.13458 17.9023 2.53415C17.9023 3.93373 19.0155 5.06831 20.3887 5.06831Z" fill="white"/>
<path d="M26.3555 15.7128C27.7286 15.7128 28.8418 14.5783 28.8418 13.1787C28.8418 11.7791 27.7286 10.6445 26.3555 10.6445C24.9823 10.6445 23.8691 11.7791 23.8691 13.1787C23.8691 14.5783 24.9823 15.7128 26.3555 15.7128Z" fill="white"/>
<path d="M20.3887 26.3535C21.7618 26.3535 22.875 25.2189 22.875 23.8193C22.875 22.4197 21.7618 21.2852 20.3887 21.2852C19.0155 21.2852 17.9023 22.4197 17.9023 23.8193C17.9023 25.2189 19.0155 26.3535 20.3887 26.3535Z" fill="white"/>
<path d="M8.45314 26.3535C9.8263 26.3535 10.9395 25.2189 10.9395 23.8193C10.9395 22.4197 9.8263 21.2852 8.45314 21.2852C7.07997 21.2852 5.9668 22.4197 5.9668 23.8193C5.9668 25.2189 7.07997 26.3535 8.45314 26.3535Z" fill="white"/>
<path d="M2.48634 15.7128C3.85951 15.7128 4.97268 14.5783 4.97268 13.1787C4.97268 11.7791 3.85951 10.6445 2.48634 10.6445C1.11317 10.6445 0 11.7791 0 13.1787C0 14.5783 1.11317 15.7128 2.48634 15.7128Z" fill="white"/>
<path d="M49.4258 21H47.1602V15.5508C47.1602 14.5026 47.0104 13.7441 46.7109 13.2754C46.418 12.8066 45.9199 12.5723 45.2168 12.5723C44.6243 12.5723 44.1198 12.8685 43.7031 13.4609C43.293 14.0534 43.0879 14.763 43.0879 15.5898V21H40.8125V15.3652C40.8125 13.5033 40.1549 12.5723 38.8398 12.5723C38.2279 12.5723 37.7233 12.8522 37.3262 13.4121C36.9355 13.972 36.7402 14.6979 36.7402 15.5898V21H34.4746V11H36.7402V12.582H36.7793C37.502 11.3711 38.5534 10.7656 39.9336 10.7656C40.6237 10.7656 41.2259 10.9577 41.7402 11.3418C42.2611 11.7194 42.6159 12.2174 42.8047 12.8359C43.5469 11.4557 44.6536 10.7656 46.125 10.7656C48.3255 10.7656 49.4258 12.123 49.4258 14.8379V21ZM60.6562 16.6152H53.8398C53.8659 17.5397 54.1491 18.2526 54.6895 18.7539C55.2363 19.2552 55.985 19.5059 56.9355 19.5059C58.0033 19.5059 58.9831 19.1868 59.875 18.5488V20.375C58.9635 20.9479 57.7591 21.2344 56.2617 21.2344C54.7904 21.2344 53.6348 20.7819 52.7949 19.877C51.9616 18.9655 51.5449 17.6862 51.5449 16.0391C51.5449 14.4831 52.0039 13.2168 52.9219 12.2402C53.8464 11.2572 54.9922 10.7656 56.3594 10.7656C57.7266 10.7656 58.7845 11.2051 59.5332 12.084C60.2819 12.9629 60.6562 14.1836 60.6562 15.7461V16.6152ZM58.4688 15.0137C58.4622 14.1999 58.2702 13.5684 57.8926 13.1191C57.515 12.6634 56.9941 12.4355 56.3301 12.4355C55.679 12.4355 55.1257 12.6732 54.6699 13.1484C54.2207 13.6237 53.944 14.2454 53.8398 15.0137H58.4688ZM68.0879 20.8926C67.6452 21.1139 67.0625 21.2246 66.3398 21.2246C64.3997 21.2246 63.4297 20.2936 63.4297 18.4316V12.7773H61.7598V11H63.4297V8.68555L65.6953 8.04102V11H68.0879V12.7773H65.6953V17.7773C65.6953 18.3698 65.8027 18.793 66.0176 19.0469C66.2324 19.3008 66.5905 19.4277 67.0918 19.4277C67.4759 19.4277 67.8079 19.3171 68.0879 19.0957V20.8926ZM77.7168 21H75.5195V19.4375H75.4805C74.7904 20.6354 73.778 21.2344 72.4434 21.2344C71.4603 21.2344 70.6888 20.9674 70.1289 20.4336C69.5755 19.8997 69.2988 19.1934 69.2988 18.3145C69.2988 16.4264 70.3861 15.3262 72.5605 15.0137L75.5293 14.5938C75.5293 13.168 74.8522 12.4551 73.498 12.4551C72.3066 12.4551 71.2324 12.8652 70.2754 13.6855V11.7031C71.3301 11.0781 72.5475 10.7656 73.9277 10.7656C76.4538 10.7656 77.7168 12.0091 77.7168 14.4961V21ZM75.5293 16.0879L73.4297 16.3809C72.7786 16.4655 72.2871 16.625 71.9551 16.8594C71.6296 17.0872 71.4668 17.4909 71.4668 18.0703C71.4668 18.4935 71.6165 18.8418 71.916 19.1152C72.222 19.3822 72.6289 19.5156 73.1367 19.5156C73.8268 19.5156 74.3965 19.2747 74.8457 18.793C75.3014 18.3047 75.5293 17.6927 75.5293 16.957V16.0879ZM82.7949 19.5547H82.7559V21H80.4902V6.19531H82.7559V12.7578H82.7949C83.5697 11.4297 84.7025 10.7656 86.1934 10.7656C87.4564 10.7656 88.4427 11.2148 89.1523 12.1133C89.8685 13.0052 90.2266 14.2031 90.2266 15.707C90.2266 17.3802 89.8262 18.7214 89.0254 19.7305C88.2246 20.7331 87.1309 21.2344 85.7441 21.2344C84.4421 21.2344 83.459 20.6745 82.7949 19.5547ZM82.7363 15.5801V16.8203C82.7363 17.5495 82.9674 18.168 83.4297 18.6758C83.8984 19.1836 84.4909 19.4375 85.207 19.4375C86.0469 19.4375 86.7044 19.112 87.1797 18.4609C87.6615 17.8034 87.9023 16.8887 87.9023 15.7168C87.9023 14.7337 87.6777 13.9655 87.2285 13.4121C86.7858 12.8522 86.1836 12.5723 85.4219 12.5723C84.6146 12.5723 83.9635 12.8587 83.4688 13.4316C82.9805 14.0046 82.7363 14.7207 82.7363 15.5801ZM93.6836 8.90039C93.3125 8.90039 92.9935 8.77995 92.7266 8.53906C92.4661 8.29818 92.3359 7.99219 92.3359 7.62109C92.3359 7.25 92.4661 6.94076 92.7266 6.69336C92.9935 6.44596 93.3125 6.32227 93.6836 6.32227C94.0677 6.32227 94.3932 6.44596 94.6602 6.69336C94.9271 6.94076 95.0605 7.25 95.0605 7.62109C95.0605 7.97266 94.9271 8.27539 94.6602 8.5293C94.3932 8.77669 94.0677 8.90039 93.6836 8.90039ZM94.8066 21H92.541V11H94.8066V21ZM100.051 21H97.7754V6.19531H100.051V21ZM112.102 21H109.836V19.3008H109.797C109.068 20.5898 107.945 21.2344 106.428 21.2344C105.197 21.2344 104.211 20.7884 103.469 19.8965C102.733 18.998 102.365 17.7773 102.365 16.2344C102.365 14.5807 102.772 13.2559 103.586 12.2598C104.406 11.2637 105.497 10.7656 106.857 10.7656C108.205 10.7656 109.185 11.306 109.797 12.3867H109.836V6.19531H112.102V21ZM109.865 16.4297V15.1211C109.865 14.4115 109.634 13.8092 109.172 13.3145C108.71 12.8197 108.12 12.5723 107.404 12.5723C106.558 12.5723 105.891 12.888 105.402 13.5195C104.921 14.151 104.68 15.0267 104.68 16.1465C104.68 17.1621 104.911 17.9661 105.373 18.5586C105.842 19.1445 106.47 19.4375 107.258 19.4375C108.033 19.4375 108.661 19.1543 109.143 18.5879C109.624 18.015 109.865 17.2956 109.865 16.4297Z" fill="white"/>
</svg>
