{
  "accessors": [
    {
      "bufferView": 2,
      "componentType": 5126,
      "count": 39101,
      "max": [
        3436.95703125,
        2421.68115234375,
        1004.731689453125
      ],
      "min": [
        -3617.6826171875,
        -2.464630126953125,
        -6761.45654296875
      ],
      "type": "VEC3"
    },
    {
      "bufferView": 2,
      "byteOffset": 469212,
      "componentType": 5126,
      "count": 39101,
      "max": [
        1.0,
        1.0,
        1.0
      ],
      "min": [
        -1.0,
        -1.0,
        -1.0
      ],
      "type": "VEC3"
    },
    {
      "bufferView": 3,
      "componentType": 5126,
      "count": 39101,
      "max": [
        1.0,
        1.0,
        1.0,
        1.0
      ],
      "min": [
        -1.0,
        -1.0,
        -1.0,
        -1.0
      ],
      "type": "VEC4"
    },
    {
      "bufferView": 1,
      "componentType": 5126,
      "count": 39101,
      "max": [
        0.9919225573539734,
        0.9936938881874084
      ],
      "min": [
        0.010955489240586758,
        0.009870422072708607
      ],
      "type": "VEC2"
    },
    {
      "bufferView": 1,
      "byteOffset": 312808,
      "componentType": 5126,
      "count": 39101,
      "max": [
        0.9919225573539734,
        0.9936938881874084
      ],
      "min": [
        0.010955489240586758,
        0.009870422072708607
      ],
      "type": "VEC2"
    },
    {
      "bufferView": 1,
      "byteOffset": 625616,
      "componentType": 5126,
      "count": 39101,
      "max": [
        0.9919225573539734,
        0.9936938881874084
      ],
      "min": [
        0.010955489240586758,
        0.009870422072708607
      ],
      "type": "VEC2"
    },
    {
      "bufferView": 1,
      "byteOffset": 938424,
      "componentType": 5126,
      "count": 39101,
      "max": [
        0.9919225573539734,
        0.9936938881874084
      ],
      "min": [
        0.010955489240586758,
        0.009870422072708607
      ],
      "type": "VEC2"
    },
    {
      "bufferView": 1,
      "byteOffset": 1251232,
      "componentType": 5126,
      "count": 39101,
      "max": [
        0.9919225573539734,
        0.9936938881874084
      ],
      "min": [
        0.010955489240586758,
        0.009870422072708607
      ],
      "type": "VEC2"
    },
    {
      "bufferView": 0,
      "componentType": 5125,
      "count": 104688,
      "type": "SCALAR"
    }
  ],
  "asset": {
    "extras": {
      "author": "1-5 Dollar store (https://sketchfab.com/Dollarstore)",
      "license": "CC-BY-4.0 (http://creativecommons.org/licenses/by/4.0/)",
      "source": "https://sketchfab.com/3d-models/planes-1-9ce3d7af64e54de8a432de4bd16ff533",
      "title": "PLANES 1"
    },
    "generator": "Sketchfab-12.50.0",
    "version": "2.0"
  },
  "bufferViews": [
    {
      "buffer": 0,
      "byteLength": 418752,
      "name": "floatBufferViews",
      "target": 34963
    },
    {
      "buffer": 0,
      "byteLength": 1564040,
      "byteOffset": 418752,
      "byteStride": 8,
      "name": "floatBufferViews",
      "target": 34962
    },
    {
      "buffer": 0,
      "byteLength": 938424,
      "byteOffset": 1982792,
      "byteStride": 12,
      "name": "floatBufferViews",
      "target": 34962
    },
    {
      "buffer": 0,
      "byteLength": 625616,
      "byteOffset": 2921216,
      "byteStride": 16,
      "name": "floatBufferViews",
      "target": 34962
    }
  ],
  "buffers": [
    {
      "byteLength": 3546832,
      "uri": "scene.bin"
    }
  ],
  "images": [
    {
      "uri": "textures/Material_114_baseColor.jpeg"
    },
    {
      "uri": "textures/Material_114_metallicRoughness.png"
    },
    {
      "uri": "textures/Material_114_normal.jpeg"
    }
  ],
  "materials": [
    {
      "name": "Material_114",
      "normalTexture": {
        "index": 2
      },
      "occlusionTexture": {
        "index": 1
      },
      "pbrMetallicRoughness": {
        "baseColorTexture": {
          "index": 0
        },
        "metallicRoughnessTexture": {
          "index": 1
        }
      }
    }
  ],
  "meshes": [
    {
      "name": "Object_0",
      "primitives": [
        {
          "attributes": {
            "NORMAL": 1,
            "POSITION": 0,
            "TANGENT": 2,
            "TEXCOORD_0": 3,
            "TEXCOORD_1": 4,
            "TEXCOORD_2": 5,
            "TEXCOORD_3": 6,
            "TEXCOORD_4": 7
          },
          "indices": 8,
          "material": 0,
          "mode": 4
        }
      ]
    }
  ],
  "nodes": [
    {
      "children": [
        1
      ],
      "matrix": [
        1.0,
        0.0,
        0.0,
        0.0,
        0.0,
        2.220446049250313e-16,
        -1.0,
        0.0,
        0.0,
        1.0,
        2.220446049250313e-16,
        0.0,
        0.0,
        0.0,
        0.0,
        1.0
      ],
      "name": "Sketchfab_model"
    },
    {
      "children": [
        2
      ],
      "name": "root"
    },
    {
      "children": [
        3
      ],
      "matrix": [
        1.0,
        0.0,
        0.0,
        0.0,
        0.0,
        2.220446049250313e-16,
        1.0,
        0.0,
        0.0,
        -1.0,
        2.220446049250313e-16,
        0.0,
        0.0,
        0.0,
        0.0,
        1.0
      ],
      "name": "GLTF_SceneRootNode"
    },
    {
      "children": [
        4
      ],
      "matrix": [
        -3.561507710969636e-08,
        1.2217543420254443e-24,
        -0.8147779703140259,
        0.0,
        5.340457739387433e-32,
        0.8147779703140259,
        1.2217543420254443e-24,
        0.0,
        0.8149999976158142,
        0.0,
        -3.562478312346684e-08,
        0.0,
        0.0,
        0.0,
        0.0,
        1.0
      ],
      "name": "Airport_New:AirBusA 330_0"
    },
    {
      "mesh": 0,
      "name": "Object_4"
    }
  ],
  "samplers": [
    {
      "magFilter": 9729,
      "minFilter": 9987,
      "wrapS": 10497,
      "wrapT": 10497
    }
  ],
  "scene": 0,
  "scenes": [
    {
      "name": "Sketchfab_Scene",
      "nodes": [
        0
      ]
    }
  ],
  "textures": [
    {
      "sampler": 0,
      "source": 0
    },
    {
      "sampler": 0,
      "source": 1
    },
    {
      "sampler": 0,
      "source": 2
    }
  ]
}
