<svg width="17" height="18" viewBox="0 0 17 18" fill="none" xmlns="http://www.w3.org/2000/svg">
<path d="M15.3 7.2H10.2V1.8C10.2 1.32261 10.0209 0.864773 9.70208 0.527208C9.38327 0.189642 8.95087 0 8.5 0C8.04913 0 7.61673 0.189642 7.29792 0.527208C6.97911 0.864773 6.8 1.32261 6.8 1.8V7.2H1.7C1.24913 7.2 0.81673 7.38964 0.497919 7.72721C0.179107 8.06477 0 8.52261 0 9C0 9.47739 0.179107 9.93523 0.497919 10.2728C0.81673 10.6104 1.24913 10.8 1.7 10.8H6.8V16.2C6.8 16.6774 6.97911 17.1352 7.29792 17.4728C7.61673 17.8104 8.04913 18 8.5 18C8.95087 18 9.38327 17.8104 9.70208 17.4728C10.0209 17.1352 10.2 16.6774 10.2 16.2L10.2 10.8H15.3C15.7509 10.8 16.1833 10.6104 16.5021 10.2728C16.8209 9.93523 17 9.47739 17 9C17 8.52261 16.8209 8.06477 16.5021 7.72721C16.1833 7.38964 15.7509 7.2 15.3 7.2Z" fill="white"/>
</svg>
