<svg width="9" height="8" viewBox="0 0 9 8" fill="none" xmlns="http://www.w3.org/2000/svg">
<path d="M7.25834 1.47196C6.73389 0.947517 6.06571 0.590364 5.33828 0.44567C4.61085 0.300975 3.85685 0.375238 3.17163 0.659066C2.4864 0.942895 1.90074 1.42354 1.48868 2.04023C1.07662 2.65691 0.856691 3.38193 0.856691 4.12361C0.856691 4.86529 1.07662 5.59032 1.48868 6.207C1.90073 6.82369 2.4864 7.30433 3.17163 7.58816C3.85685 7.87199 4.61085 7.94625 5.33828 7.80156C6.06571 7.65686 6.73389 7.29971 7.25834 6.77526C7.60656 6.42704 7.88278 6.01365 8.07124 5.55868C8.25969 5.10371 8.35669 4.61607 8.35669 4.12361C8.35669 3.63116 8.25969 3.14352 8.07124 2.68855C7.88278 2.23358 7.60656 1.82018 7.25834 1.47196V1.47196ZM2.48537 6.24493C2.06581 5.82538 1.78009 5.29083 1.66433 4.70888C1.54858 4.12694 1.60799 3.52374 1.83505 2.97556C2.06212 2.42739 2.44663 1.95885 2.93998 1.62921C3.43333 1.29956 4.01335 1.12361 4.60669 1.12361C5.20003 1.12361 5.78005 1.29956 6.2734 1.62921C6.76675 1.95885 7.15127 2.42739 7.37833 2.97556C7.60539 3.52374 7.6648 4.12694 7.54905 4.70888C7.43329 5.29083 7.14757 5.82538 6.72801 6.24493C6.1654 6.80754 5.40234 7.12361 4.60669 7.12361C3.81104 7.12361 3.04798 6.80754 2.48537 6.24493V6.24493ZM5.93252 4.91911L5.13702 4.12361L5.93252 3.32812C6.00284 3.25779 6.04235 3.16241 6.04235 3.06295C6.04235 2.9635 6.00284 2.86812 5.93252 2.79779C5.86219 2.72746 5.76681 2.68795 5.66735 2.68795C5.56789 2.68795 5.47251 2.72746 5.40219 2.79779L4.60669 3.59328L3.8112 2.79779C3.74087 2.72746 3.64549 2.68795 3.54603 2.68795C3.44657 2.68795 3.35119 2.72746 3.28087 2.79779C3.21054 2.86812 3.17103 2.9635 3.17103 3.06295C3.17103 3.16241 3.21054 3.25779 3.28087 3.32812L4.07636 4.12361L3.28087 4.91911C3.21054 4.98944 3.17103 5.08482 3.17103 5.18427C3.17103 5.28373 3.21054 5.37911 3.28087 5.44944C3.35119 5.51977 3.44657 5.55927 3.54603 5.55927C3.64549 5.55927 3.74087 5.51977 3.8112 5.44944L4.60669 4.65394L5.40219 5.44944C5.47251 5.51977 5.56789 5.55927 5.66735 5.55927C5.76681 5.55927 5.86219 5.51977 5.93252 5.44944C6.00284 5.37911 6.04235 5.28373 6.04235 5.18427C6.04235 5.08482 6.00284 4.98944 5.93252 4.91911Z" fill="#FF453D"/>
</svg>
