<svg width="18" height="20" viewBox="0 0 18 20" fill="none" xmlns="http://www.w3.org/2000/svg">
<path d="M7.16667 16C7.40978 16 7.64294 15.8946 7.81485 15.7071C7.98676 15.5196 8.08333 15.2652 8.08333 15V9C8.08333 8.73478 7.98676 8.48043 7.81485 8.29289C7.64294 8.10536 7.40978 8 7.16667 8C6.92355 8 6.69039 8.10536 6.51849 8.29289C6.34658 8.48043 6.25 8.73478 6.25 9V15C6.25 15.2652 6.34658 15.5196 6.51849 15.7071C6.69039 15.8946 6.92355 16 7.16667 16ZM16.3333 4H12.6667V3C12.6667 2.20435 12.3769 1.44129 11.8612 0.87868C11.3455 0.316071 10.646 0 9.91667 0H8.08333C7.35399 0 6.65451 0.316071 6.13879 0.87868C5.62306 1.44129 5.33333 2.20435 5.33333 3V4H1.66667C1.42355 4 1.19039 4.10536 1.01849 4.29289C0.846577 4.48043 0.75 4.73478 0.75 5C0.75 5.26522 0.846577 5.51957 1.01849 5.70711C1.19039 5.89464 1.42355 6 1.66667 6H2.58333V17C2.58333 17.7956 2.87306 18.5587 3.38879 19.1213C3.90451 19.6839 4.60399 20 5.33333 20H12.6667C13.396 20 14.0955 19.6839 14.6112 19.1213C15.1269 18.5587 15.4167 17.7956 15.4167 17V6H16.3333C16.5764 6 16.8096 5.89464 16.9815 5.70711C17.1534 5.51957 17.25 5.26522 17.25 5C17.25 4.73478 17.1534 4.48043 16.9815 4.29289C16.8096 4.10536 16.5764 4 16.3333 4ZM7.16667 3C7.16667 2.73478 7.26324 2.48043 7.43515 2.29289C7.60706 2.10536 7.84022 2 8.08333 2H9.91667C10.1598 2 10.3929 2.10536 10.5648 2.29289C10.7368 2.48043 10.8333 2.73478 10.8333 3V4H7.16667V3ZM13.5833 17C13.5833 17.2652 13.4868 17.5196 13.3148 17.7071C13.1429 17.8946 12.9098 18 12.6667 18H5.33333C5.09022 18 4.85706 17.8946 4.68515 17.7071C4.51324 17.5196 4.41667 17.2652 4.41667 17V6H13.5833V17ZM10.8333 16C11.0764 16 11.3096 15.8946 11.4815 15.7071C11.6534 15.5196 11.75 15.2652 11.75 15V9C11.75 8.73478 11.6534 8.48043 11.4815 8.29289C11.3096 8.10536 11.0764 8 10.8333 8C10.5902 8 10.3571 8.10536 10.1852 8.29289C10.0132 8.48043 9.91667 8.73478 9.91667 9V15C9.91667 15.2652 10.0132 15.5196 10.1852 15.7071C10.3571 15.8946 10.5902 16 10.8333 16Z" fill="white"/>
</svg>
