<svg xmlns="http://www.w3.org/2000/svg" style="display:none;">
    <defs>

                
        <symbol id="icon-D-editor" viewBox="0 0 36 32">
            <path  d="M9.266 6.327l-8.633-3.237 8.706-3.089 8.606 3.148-8.679 3.178zM9.828 13.843c1.845-0.585 3.712-0.512 5.437 0.081l3.337-6.454v-3.36l-8.774 3.213v6.52zM24.966 0.1l0.016 25.957 11.019-4.663-11.034-21.294zM16.307 14.371c2.225 1.234 3.891 3.033 4.142 5.738-0.174 2.055-1.022 3.946-2.432 5.391-1.509 1.546-3.547 2.433-5.591 2.433-2.059 0-4.107-0.752-5.62-2.064-1.557-1.349-2.42-3.158-2.435-5.098 0.070-2.76 1.31-5.008 4.328-6.477v-6.974l-8.699-3.262v11.532l4.722 2.156c-0.914 1.42-1.445 3.111-1.445 4.925 0 5.033 4.080 9.113 9.113 9.113 4.259 0 7.835-2.922 8.835-6.87l2.476 1.142-0.016-25.957-7.379 14.271z">        
            </path>
        </symbol>    

        
        <symbol id="icon-add" viewBox="0 0 32 32">
            <path   d="M16 0c1.473 0 2.667 1.194 2.667 2.667v10.667h10.667c1.473 0 2.667 1.194 2.667 2.667s-1.194 2.667-2.667 2.667h-10.667v10.667c0 1.473-1.194 2.667-2.667 2.667s-2.667-1.194-2.667-2.667v-10.667h-10.667c-1.473 0-2.667-1.194-2.667-2.667s1.194-2.667 2.667-2.667h10.667v-10.667c0-1.473 1.194-2.667 2.667-2.667z">        
            </path>
        </symbol>

        
        <symbol id="icon-Analytics" viewBox="0 0 32 32">
            <path  d="M9.333 21.333c0.53 0 1.039-0.211 1.414-0.586s0.586-0.884 0.586-1.414c0.007-0.067 0.007-0.133 0-0.2l3.72-3.72h0.613l2.147 2.147c0 0 0 0.067 0 0.107 0 0.53 0.211 1.039 0.586 1.414s0.884 0.586 1.414 0.586c0.53 0 1.039-0.211 1.414-0.586s0.586-0.884 0.586-1.414v-0.107l4.853-4.893c0.396 0 0.782-0.117 1.111-0.337s0.585-0.532 0.737-0.898 0.191-0.768 0.114-1.156c-0.077-0.388-0.268-0.744-0.547-1.024s-0.636-0.47-1.024-0.547c-0.388-0.077-0.79-0.038-1.155 0.114s-0.678 0.408-0.898 0.737c-0.22 0.329-0.337 0.716-0.337 1.111-0.007 0.066-0.007 0.133 0 0.2l-4.813 4.813h-0.213l-2.307-2.347c0-0.53-0.211-1.039-0.586-1.414s-0.884-0.586-1.414-0.586c-0.53 0-1.039 0.211-1.414 0.586s-0.586 0.884-0.586 1.414l-4 4c-0.53 0-1.039 0.211-1.414 0.586s-0.586 0.884-0.586 1.414c0 0.53 0.211 1.039 0.586 1.414s0.884 0.586 1.414 0.586zM27.333 26.667h-22.667v-22.667c0-0.354-0.14-0.693-0.391-0.943s-0.589-0.391-0.943-0.391c-0.354 0-0.693 0.14-0.943 0.391s-0.391 0.589-0.391 0.943v24c0 0.354 0.14 0.693 0.391 0.943s0.589 0.391 0.943 0.391h24c0.354 0 0.693-0.141 0.943-0.391s0.391-0.589 0.391-0.943c0-0.354-0.141-0.693-0.391-0.943s-0.589-0.391-0.943-0.391z">
            </path>
            </symbol>

        
        <symbol id="icon-Back-perspective" viewBox="0 0 46 32">
            <path fill="#fff" style="fill: var(--color2, #fff)" d="M46 12v2h-46v-2h46z"></path>
            <path fill="#7aa6ff" style="fill: var(--color3, #7aa6ff)" d="M30.734 6.369l8.633-3.259-8.706-3.11-8.606 3.17 8.679 3.2zM30.172 13.937c-1.845-0.588-3.712-0.515-5.437 0.082l-3.337-6.497v-3.383l8.774 3.235v6.564zM15.034 0.1l-0.016 26.133-11.019-4.695 11.034-21.438zM23.693 14.468c-2.225 1.242-3.891 3.054-4.142 5.777 0.174 2.069 1.022 3.973 2.432 5.427 1.509 1.556 3.547 2.449 5.591 2.449 2.059 0 4.107-0.757 5.62-2.078 1.557-1.358 2.42-3.179 2.435-5.132-0.070-2.779-1.31-5.042-4.328-6.521v-7.021l8.699-3.284v11.61l-4.722 2.171c0.914 1.43 1.445 3.132 1.445 4.959 0 5.067-4.080 9.175-9.113 9.175-4.259 0-7.835-2.942-8.835-6.917l-2.476 1.15 0.016-26.133 7.379 14.368z"></path>
            </symbol>


           
            <symbol id="icon-bottom-prespective" viewBox="0 0 37 32">
                <path fill="#7aa6ff" style="fill: var(--color3, #7aa6ff)" d="M24.587 5.095l6.906-2.607-6.965-2.488-6.884 2.536 6.943 2.56zM24.137 11.15c-1.476-0.471-2.969-0.412-4.35 0.065l-2.67-5.198v-2.706l7.019 2.588v5.251zM12.028 0.080l-0.012 20.906-8.815-3.756 8.828-17.15zM18.955 11.574c-1.78 0.994-3.113 2.443-3.314 4.622 0.139 1.655 0.817 3.178 1.945 4.342 1.207 1.245 2.837 1.959 4.472 1.959 1.647 0 3.286-0.606 4.496-1.662 1.246-1.087 1.936-2.544 1.948-4.106-0.056-2.223-1.048-4.034-3.462-5.216v-5.617l6.959-2.627v9.288l-3.778 1.737c0.731 1.144 1.156 2.505 1.156 3.967 0 4.054-3.264 7.34-7.29 7.34-3.407 0-6.268-2.353-7.068-5.533l-1.981 0.92 0.013-20.906 5.903 11.494z"></path>
                <path fill="#fff" style="fill: var(--color2, #fff)" d="M36.8 30.4v1.6h-36.8v-1.6h36.8z"></path>
                </symbol> 

                
                <symbol id="icon-Component" viewBox="0 0 32 32">
                    <path  d="M27.293 9.829c0 0 0 0 0-0.107l-0.080-0.2c-0.028-0.042-0.059-0.083-0.093-0.12-0.036-0.056-0.076-0.11-0.12-0.16l-0.12-0.093-0.213-0.107-10-6.173c-0.212-0.132-0.457-0.203-0.707-0.203s-0.495 0.070-0.707 0.203l-9.92 6.173-0.12 0.107-0.12 0.093c-0.044 0.050-0.084 0.104-0.12 0.16-0.034 0.037-0.065 0.078-0.093 0.12l-0.080 0.2c0 0 0 0 0 0.107-0.013 0.115-0.013 0.232 0 0.347v11.653c-0 0.227 0.057 0.45 0.167 0.648s0.268 0.365 0.46 0.485l10 6.173c0.062 0.038 0.129 0.065 0.2 0.080 0 0 0.067 0 0.107 0 0.226 0.071 0.468 0.071 0.693 0 0 0 0.067 0 0.107 0 0.071-0.015 0.138-0.042 0.2-0.080v0l9.933-6.173c0.192-0.12 0.35-0.287 0.46-0.485s0.167-0.421 0.167-0.648v-11.653c0.013-0.115 0.013-0.232 0-0.347v0zM14.666 25.616l-7.333-4.533v-8.507l7.333 4.52v8.52zM16 14.789l-7.467-4.613 7.467-4.6 7.467 4.6-7.467 4.613zM24.666 21.083l-7.333 4.533v-8.52l7.333-4.52v8.507z"></path>
                    </symbol>


       
        <symbol id="icon-copy" viewBox="0 0 32 32">
            <path  d="M21.333 26.664h-10.667c-1.061 0-2.078-0.421-2.828-1.172s-1.172-1.767-1.172-2.828v-13.333c0-0.354-0.14-0.693-0.391-0.943s-0.589-0.391-0.943-0.391c-0.354 0-0.693 0.14-0.943 0.391s-0.391 0.589-0.391 0.943v13.333c0 1.768 0.702 3.464 1.953 4.714s2.946 1.953 4.714 1.953h10.667c0.354 0 0.693-0.141 0.943-0.391s0.39-0.589 0.39-0.943-0.14-0.693-0.39-0.943c-0.25-0.25-0.589-0.391-0.943-0.391zM28 11.917c-0.014-0.123-0.041-0.243-0.080-0.36v-0.12c-0.064-0.137-0.15-0.263-0.253-0.373l-8-8c-0.11-0.104-0.236-0.189-0.373-0.253h-0.12l-0.427-0.147h-5.413c-1.061 0-2.078 0.421-2.828 1.172s-1.172 1.768-1.172 2.828v13.333c0 1.061 0.421 2.078 1.172 2.828s1.768 1.172 2.828 1.172h10.667c1.061 0 2.078-0.421 2.828-1.172s1.172-1.768 1.172-2.828v-8c0 0 0 0 0-0.080zM20 7.211l3.453 3.453h-2.12c-0.354 0-0.693-0.14-0.943-0.391s-0.391-0.589-0.391-0.943v-2.12zM25.333 19.997c0 0.354-0.141 0.693-0.391 0.943s-0.589 0.391-0.943 0.391h-10.667c-0.354 0-0.693-0.141-0.943-0.391s-0.391-0.589-0.391-0.943v-13.333c0-0.354 0.14-0.693 0.391-0.943s0.589-0.391 0.943-0.391h4v4c0 1.061 0.421 2.078 1.172 2.828s1.767 1.172 2.828 1.172h4v6.667z"></path>
            </symbol>

            
            <symbol id="icon-Customize-view" viewBox="0 0 32 32">
                <path  d="M23.464 6.152c-2.421 0-4.843 0.004-7.264-0.005-0.267-0.001-0.394 0.061-0.487 0.337-0.688 2.040-2.548 3.37-4.661 3.359-2.089-0.010-3.933-1.348-4.614-3.374-0.086-0.255-0.197-0.326-0.457-0.324-1.563 0.013-3.126 0.012-4.689 0.004-0.965-0.005-1.57-0.924-1.162-1.757 0.238-0.485 0.646-0.703 1.183-0.702 1.55 0.002 3.101-0.005 4.65 0.007 0.272 0.002 0.392-0.071 0.483-0.342 0.678-2.018 2.534-3.352 4.626-3.355 2.099-0.003 3.948 1.32 4.634 3.341 0.096 0.284 0.225 0.358 0.513 0.357 4.766-0.009 9.531-0.007 14.298-0.006 0.166 0 0.336-0.006 0.497 0.027 0.617 0.126 1.042 0.711 0.978 1.328-0.064 0.618-0.577 1.098-1.225 1.102-1.704 0.009-3.407 0.004-5.112 0.004-0.73 0-1.46-0.001-2.19-0.001zM13.539 4.938c0.007-1.36-1.095-2.473-2.452-2.477-1.342-0.003-2.452 1.086-2.467 2.423-0.016 1.361 1.079 2.486 2.431 2.497 1.359 0.012 2.481-1.089 2.488-2.443z"></path>
                <path  d="M8.556 14.768c2.421 0 4.843-0.004 7.264 0.005 0.253 0.001 0.373-0.055 0.461-0.318 0.685-2.042 2.541-3.381 4.648-3.379 2.109 0.002 3.946 1.334 4.642 3.388 0.081 0.24 0.183 0.311 0.429 0.309 1.537-0.011 3.074-0.006 4.612-0.005 0.82 0.001 1.379 0.495 1.386 1.218 0.006 0.739-0.557 1.241-1.401 1.242-1.511 0.001-3.024 0.009-4.535-0.007-0.292-0.003-0.415 0.079-0.511 0.36-0.686 2.018-2.539 3.342-4.637 3.339-2.091-0.004-3.946-1.339-4.623-3.358-0.092-0.277-0.219-0.338-0.486-0.337-4.766 0.007-9.531 0.006-14.298 0.004-0.178 0-0.362 0.006-0.535-0.032-0.62-0.136-1.032-0.723-0.959-1.34 0.074-0.633 0.595-1.084 1.28-1.085 2.418-0.006 4.84-0.003 7.261-0.003zM20.925 13.537c-1.357 0-2.464 1.111-2.46 2.468 0.003 1.34 1.101 2.443 2.439 2.452 1.358 0.009 2.475-1.096 2.479-2.45 0.004-1.36-1.101-2.469-2.459-2.47z"></path>
                <path  d="M23.439 28.297c-2.421 0-4.843 0.005-7.264-0.006-0.263-0.001-0.37 0.074-0.456 0.326-0.692 2.045-2.543 3.377-4.653 3.372-2.103-0.005-3.948-1.345-4.636-3.396-0.084-0.25-0.199-0.3-0.435-0.299-1.537 0.009-3.074 0.006-4.612 0.004-0.816-0.001-1.375-0.502-1.377-1.227-0.002-0.728 0.554-1.232 1.369-1.233 1.537-0.002 3.075-0.008 4.612 0.006 0.268 0.003 0.368-0.083 0.452-0.331 0.681-2.021 2.528-3.359 4.619-3.366 2.112-0.008 3.968 1.321 4.656 3.363 0.094 0.281 0.229 0.332 0.49 0.332 4.817-0.006 9.634-0.006 14.451-0.004 0.964 0 1.584 0.834 1.256 1.676-0.193 0.495-0.643 0.783-1.248 0.783-2.407 0.003-4.815 0.001-7.224 0.001zM13.539 27.073c0.002-1.359-1.104-2.467-2.463-2.466-1.341 0.001-2.446 1.096-2.456 2.434-0.011 1.36 1.090 2.479 2.444 2.486 1.358 0.007 2.472-1.098 2.475-2.454z"></path>
                </symbol>


       
        <symbol id="icon-Delete" viewBox="0 0 32 32">
            <path  d="M13.333 23.997c0.354 0 0.693-0.14 0.943-0.391s0.391-0.589 0.391-0.943v-8c0-0.354-0.14-0.693-0.391-0.943s-0.589-0.391-0.943-0.391c-0.354 0-0.693 0.14-0.943 0.391s-0.391 0.589-0.391 0.943v8c0 0.354 0.14 0.693 0.391 0.943s0.589 0.391 0.943 0.391zM26.667 7.997h-5.333v-1.333c0-1.061-0.421-2.078-1.172-2.828s-1.768-1.172-2.828-1.172h-2.667c-1.061 0-2.078 0.421-2.828 1.172s-1.172 1.768-1.172 2.828v1.333h-5.333c-0.354 0-0.693 0.14-0.943 0.391s-0.391 0.589-0.391 0.943c0 0.354 0.14 0.693 0.391 0.943s0.589 0.391 0.943 0.391h1.333v14.667c0 1.061 0.421 2.078 1.172 2.828s1.768 1.172 2.828 1.172h10.667c1.061 0 2.078-0.421 2.828-1.172s1.172-1.768 1.172-2.828v-14.667h1.333c0.354 0 0.693-0.14 0.943-0.391s0.391-0.589 0.391-0.943-0.14-0.693-0.391-0.943c-0.25-0.25-0.589-0.391-0.943-0.391zM13.333 6.664c0-0.354 0.14-0.693 0.391-0.943s0.589-0.391 0.943-0.391h2.667c0.354 0 0.693 0.14 0.943 0.391s0.391 0.589 0.391 0.943v1.333h-5.333v-1.333zM22.667 25.331c0 0.354-0.14 0.693-0.39 0.943s-0.589 0.39-0.943 0.39h-10.667c-0.354 0-0.693-0.14-0.943-0.39s-0.391-0.589-0.391-0.943v-14.667h13.333v14.667zM18.667 23.997c0.354 0 0.693-0.14 0.943-0.391s0.391-0.589 0.391-0.943v-8c0-0.354-0.14-0.693-0.391-0.943s-0.589-0.391-0.943-0.391c-0.354 0-0.693 0.14-0.943 0.391s-0.391 0.589-0.391 0.943v8c0 0.354 0.14 0.693 0.391 0.943s0.589 0.391 0.943 0.391z"></path>
            </symbol>

            
            <symbol id="icon-Dropdown" viewBox="0 0 32 32">
                <path  d="M17.16 26.003l10.773-18.667c0.117-0.203 0.179-0.433 0.179-0.667s-0.062-0.464-0.179-0.667c-0.117-0.203-0.287-0.372-0.49-0.489s-0.435-0.178-0.67-0.177h-21.547c-0.235-0.001-0.466 0.060-0.67 0.177s-0.373 0.286-0.49 0.489c-0.117 0.203-0.179 0.433-0.179 0.667s0.062 0.464 0.179 0.667l10.773 18.667c0.116 0.205 0.285 0.376 0.489 0.495s0.435 0.181 0.671 0.181c0.236 0 0.468-0.063 0.671-0.181s0.372-0.289 0.489-0.495v0zM7.534 8.003h16.933l-8.467 14.667-8.467-14.667z"></path>
                </symbol>


        
                <symbol id="icon-Folder" viewBox="0 0 32 32">
                    <path  d="M25.333 7.333h-8.373l-0.427-1.333c-0.277-0.782-0.79-1.459-1.468-1.937s-1.489-0.733-2.319-0.73h-6.080c-1.061 0-2.078 0.421-2.828 1.172s-1.172 1.768-1.172 2.828v17.333c0 1.061 0.421 2.078 1.172 2.828s1.768 1.172 2.828 1.172h18.667c1.061 0 2.078-0.421 2.828-1.172s1.172-1.767 1.172-2.828v-13.333c0-1.061-0.422-2.078-1.172-2.828s-1.768-1.172-2.828-1.172zM26.667 24.667c0 0.354-0.14 0.693-0.391 0.943s-0.589 0.391-0.943 0.391h-18.667c-0.354 0-0.693-0.14-0.943-0.391s-0.391-0.589-0.391-0.943v-17.333c0-0.354 0.14-0.693 0.391-0.943s0.589-0.391 0.943-0.391h6.080c0.28-0.001 0.552 0.086 0.78 0.249s0.398 0.393 0.487 0.658l0.72 2.187c0.089 0.265 0.26 0.495 0.487 0.658s0.5 0.25 0.78 0.249h9.333c0.354 0 0.693 0.14 0.943 0.391s0.391 0.589 0.391 0.943v13.333z"></path>
                    </symbol>

            
        
        <symbol id="icon-Front-prespective" viewBox="0 0 46 32">
            <path fill="#7aa6ff" style="fill: var(--color3, #7aa6ff)" d="M30.734 6.369l8.633-3.259-8.706-3.11-8.606 3.17 8.679 3.2zM30.172 13.937c-1.845-0.588-3.712-0.515-5.437 0.082l-3.337-6.497v-3.383l8.774 3.235v6.564zM15.034 0.1l-0.016 26.133-11.019-4.695 11.034-21.438zM23.693 14.468c-2.225 1.242-3.891 3.054-4.142 5.777 0.174 2.069 1.022 3.973 2.432 5.427 1.509 1.556 3.547 2.449 5.591 2.449 2.059 0 4.107-0.757 5.62-2.078 1.557-1.358 2.42-3.179 2.435-5.132-0.070-2.779-1.31-5.042-4.328-6.521v-7.021l8.699-3.284v11.61l-4.722 2.171c0.914 1.43 1.445 3.132 1.445 4.959 0 5.067-4.080 9.175-9.113 9.175-4.259 0-7.835-2.942-8.835-6.917l-2.476 1.15 0.016-26.133 7.379 14.368z"></path>
            <path fill="#fff" style="fill: var(--color2, #fff)" d="M46 12v2h-46v-2h46z"></path>
            </symbol>


       
        <symbol id="icon-Help" viewBox="0 0 37 32">
            <path  d="M35.765 0.941v30.118h-34.824v-30.118h34.824zM0 0v32h36.706v-32h-36.706z"></path>
            <path  d="M17.214 19.096c-0.040 0.045-0.078 0.092-0.113 0.141-0.036 0.052-0.064 0.109-0.085 0.169-0.027 0.053-0.046 0.11-0.056 0.169-0.005 0.063-0.005 0.126 0 0.188-0.003 0.123 0.023 0.246 0.075 0.358 0.042 0.117 0.11 0.223 0.198 0.311s0.194 0.155 0.311 0.198c0.113 0.050 0.234 0.075 0.358 0.075s0.245-0.026 0.358-0.075c0.117-0.042 0.223-0.11 0.311-0.198s0.155-0.194 0.198-0.311c0.042-0.114 0.061-0.236 0.056-0.358 0.001-0.124-0.023-0.247-0.070-0.361s-0.116-0.219-0.203-0.307c-0.088-0.088-0.192-0.158-0.306-0.206s-0.238-0.072-0.362-0.072-0.247 0.025-0.362 0.072c-0.115 0.048-0.219 0.118-0.306 0.206zM17.882 6.588c-1.861 0-3.681 0.552-5.229 1.586s-2.754 2.504-3.466 4.224c-0.712 1.72-0.899 3.612-0.536 5.438s1.26 3.503 2.576 4.819c1.316 1.316 2.993 2.213 4.819 2.576s3.718 0.177 5.438-0.536c1.72-0.712 3.19-1.919 4.224-3.466s1.586-3.367 1.586-5.229c0-1.236-0.243-2.46-0.716-3.602s-1.166-2.179-2.040-3.053-1.912-1.567-3.053-2.040c-1.142-0.473-2.366-0.716-3.602-0.716v0zM17.882 23.529c-1.489 0-2.945-0.442-4.183-1.269s-2.203-2.003-2.773-3.379-0.719-2.89-0.429-4.35c0.291-1.461 1.008-2.802 2.061-3.855s2.395-1.77 3.855-2.061c1.461-0.291 2.974-0.141 4.35 0.428s2.552 1.535 3.379 2.773c0.827 1.238 1.269 2.694 1.269 4.183 0 1.997-0.793 3.912-2.205 5.324s-3.327 2.205-5.324 2.205v0zM17.882 11.294c-0.496-0-0.983 0.13-1.413 0.378s-0.786 0.605-1.034 1.034c-0.068 0.107-0.114 0.227-0.134 0.352s-0.016 0.253 0.014 0.377c0.030 0.123 0.085 0.239 0.161 0.341s0.172 0.187 0.282 0.25c0.11 0.064 0.232 0.104 0.357 0.12s0.254 0.005 0.376-0.030c0.122-0.035 0.235-0.095 0.334-0.175s0.179-0.18 0.238-0.292c0.083-0.144 0.202-0.263 0.346-0.345s0.307-0.126 0.473-0.125c0.25 0 0.489 0.099 0.666 0.276s0.276 0.416 0.276 0.665c0 0.25-0.099 0.489-0.276 0.665s-0.416 0.276-0.666 0.276c-0.25 0-0.489 0.099-0.666 0.276s-0.276 0.416-0.276 0.665v0.941c0 0.25 0.099 0.489 0.276 0.666s0.416 0.276 0.666 0.276c0.25 0 0.489-0.099 0.666-0.276s0.276-0.416 0.276-0.666v-0.169c0.622-0.226 1.146-0.663 1.478-1.236s0.453-1.244 0.341-1.896-0.45-1.245-0.955-1.674c-0.505-0.429-1.144-0.666-1.806-0.672v0z"></path>
            </symbol>

            
            <symbol id="icon-Home" viewBox="0 0 32 32">
                <path  d="M26.667 10.667l-8-7.013c-0.733-0.656-1.683-1.019-2.667-1.019s-1.933 0.363-2.667 1.019l-8 7.013c-0.423 0.379-0.761 0.843-0.991 1.363s-0.346 1.082-0.342 1.65v11.653c0 1.061 0.421 2.078 1.172 2.828s1.768 1.172 2.828 1.172h16c1.061 0 2.078-0.421 2.828-1.172s1.172-1.768 1.172-2.828v-11.667c0.003-0.566-0.115-1.126-0.345-1.643s-0.567-0.98-0.989-1.357zM18.667 26.667h-5.333v-6.667c0-0.354 0.141-0.693 0.391-0.943s0.589-0.391 0.943-0.391h2.667c0.354 0 0.693 0.141 0.943 0.391s0.391 0.589 0.391 0.943v6.667zM25.333 25.334c0 0.354-0.141 0.693-0.391 0.943s-0.589 0.391-0.943 0.391h-2.667v-6.667c0-1.061-0.421-2.078-1.172-2.828s-1.768-1.172-2.828-1.172h-2.667c-1.061 0-2.078 0.421-2.828 1.172s-1.172 1.767-1.172 2.828v6.667h-2.667c-0.354 0-0.693-0.141-0.943-0.391s-0.391-0.589-0.391-0.943v-11.667c0-0.189 0.041-0.376 0.119-0.549s0.192-0.326 0.334-0.451l8-7c0.243-0.214 0.556-0.332 0.88-0.332s0.637 0.118 0.88 0.332l8 7c0.142 0.125 0.256 0.279 0.334 0.451s0.119 0.36 0.119 0.549v11.667z"></path>
                </symbol>

        
        <symbol id="icon-Image" viewBox="0 0 32 32">
            <path  d="M25.333 2.664h-18.667c-1.061 0-2.078 0.421-2.828 1.172s-1.172 1.768-1.172 2.828v18.667c0 1.061 0.421 2.078 1.172 2.828s1.768 1.172 2.828 1.172h18.667c0.219-0.003 0.438-0.025 0.653-0.067l0.4-0.093h0.16l0.493-0.187 0.173-0.093c0.133-0.080 0.28-0.147 0.413-0.24 0.178-0.131 0.347-0.274 0.507-0.427l0.093-0.12c0.131-0.133 0.251-0.275 0.36-0.427l0.12-0.173c0.093-0.148 0.173-0.305 0.24-0.467 0.036-0.064 0.068-0.131 0.093-0.2 0.067-0.16 0.107-0.333 0.16-0.507v-0.2c0.076-0.261 0.12-0.529 0.133-0.8v-18.667c0-1.061-0.421-2.078-1.172-2.828s-1.768-1.172-2.828-1.172zM6.667 26.664c-0.354 0-0.693-0.14-0.943-0.39s-0.391-0.589-0.391-0.943v-5.747l4.387-4.4c0.124-0.125 0.271-0.224 0.434-0.292s0.337-0.103 0.513-0.103c0.176 0 0.35 0.035 0.513 0.103s0.31 0.167 0.434 0.292l11.467 11.48h-16.413zM26.667 25.331c-0.001 0.164-0.033 0.327-0.093 0.48-0.031 0.065-0.066 0.127-0.107 0.187-0.036 0.056-0.076 0.11-0.12 0.16l-7.133-7.133 1.173-1.173c0.124-0.125 0.271-0.224 0.434-0.292s0.337-0.103 0.513-0.103c0.176 0 0.35 0.035 0.513 0.103s0.31 0.167 0.434 0.292v0l4.387 4.4v3.080zM26.667 18.477l-2.507-2.48c-0.763-0.724-1.775-1.128-2.827-1.128s-2.064 0.404-2.827 1.128l-1.173 1.173-3.84-3.84c-0.763-0.724-1.775-1.128-2.827-1.128s-2.064 0.404-2.827 1.128l-2.507 2.48v-9.147c0-0.354 0.14-0.693 0.391-0.943s0.589-0.391 0.943-0.391h18.667c0.354 0 0.693 0.14 0.943 0.391s0.391 0.589 0.391 0.943v11.813zM18 7.997c-0.396 0-0.782 0.117-1.111 0.337s-0.585 0.532-0.737 0.898c-0.151 0.365-0.191 0.768-0.114 1.156s0.268 0.744 0.547 1.024c0.28 0.28 0.636 0.47 1.024 0.547s0.79 0.038 1.156-0.114c0.365-0.151 0.678-0.408 0.898-0.737s0.337-0.716 0.337-1.111c0-0.53-0.211-1.039-0.586-1.414s-0.884-0.586-1.414-0.586z"></path>
            </symbol>

        
        <symbol id="icon-left-arrow" viewBox="0 0 32 32">
            <path  d="M32 4.571l-11.667 11.429 11.667 11.429-2.333 4.571-16.333-16 16.333-16 2.333 4.571z"></path>
            <path  d="M18.667 4.571l-11.667 11.429 11.667 11.429-2.333 4.571-16.333-16 16.333-16 2.333 4.571z"></path>
            </symbol>

       
        <symbol id="icon-left-prespective" viewBox="0 0 32 32">
            <path fill="#7aa6ff" style="fill: var(--color3, #7aa6ff)" d="M25.554 9.996l6.006-2.267-6.056-2.164-5.986 2.205 6.037 2.226zM25.163 15.261c-1.283-0.409-2.582-0.359-3.782 0.057l-2.321-4.52v-2.353l6.104 2.25v4.566zM14.633 5.635l-0.011 18.179-7.665-3.266 7.676-14.913zM20.656 15.63c-1.548 0.864-2.706 2.124-2.882 4.019 0.121 1.439 0.711 2.764 1.692 3.775 1.050 1.083 2.467 1.704 3.889 1.704 1.432 0 2.857-0.527 3.91-1.445 1.083-0.945 1.684-2.212 1.694-3.57-0.048-1.933-0.911-3.507-3.011-4.536v-4.884l6.051-2.285v8.076l-3.285 1.51c0.636 0.995 1.005 2.179 1.005 3.45 0 3.525-2.838 6.382-6.339 6.382-2.963 0-5.451-2.046-6.146-4.812l-1.722 0.8 0.011-18.179 5.133 9.995z"></path>
            <path fill="#fff" style="fill: var(--color2, #fff)" d="M0 0h1.391v32h-1.391v-32z"></path>
            </symbol>

        
        <symbol id="icon-lock" viewBox="0 0 32 32">
            <path  d="M16 17.337c-0.406-0.005-0.804 0.115-1.139 0.343s-0.594 0.554-0.739 0.933c-0.145 0.379-0.171 0.794-0.073 1.188s0.313 0.749 0.618 1.017v1.853c0 0.354 0.14 0.693 0.391 0.943s0.589 0.391 0.943 0.391 0.693-0.14 0.943-0.391c0.25-0.25 0.391-0.589 0.391-0.943v-1.853c0.305-0.268 0.521-0.623 0.618-1.017s0.072-0.809-0.073-1.188c-0.145-0.379-0.403-0.705-0.739-0.933s-0.733-0.348-1.139-0.343zM22.666 12.004h-10.667v-2.667c-0.002-0.792 0.231-1.566 0.67-2.225s1.063-1.173 1.794-1.478c0.731-0.304 1.536-0.384 2.313-0.231s1.49 0.534 2.051 1.094c0.501 0.512 0.86 1.146 1.040 1.84 0.044 0.17 0.121 0.329 0.226 0.47s0.237 0.258 0.388 0.347c0.151 0.089 0.318 0.148 0.492 0.172s0.351 0.015 0.52-0.029 0.329-0.121 0.47-0.226c0.14-0.105 0.258-0.237 0.347-0.389s0.148-0.318 0.172-0.492c0.024-0.174 0.015-0.35-0.029-0.52-0.304-1.154-0.906-2.207-1.747-3.053-0.933-0.93-2.121-1.563-3.413-1.819s-2.632-0.122-3.849 0.383c-1.217 0.505-2.257 1.359-2.989 2.455s-1.122 2.384-1.123 3.701v2.667c-1.061 0-2.078 0.421-2.828 1.172s-1.172 1.768-1.172 2.828v9.333c0 1.061 0.421 2.078 1.172 2.828s1.768 1.172 2.828 1.172h13.333c1.061 0 2.078-0.421 2.828-1.172s1.172-1.768 1.172-2.828v-9.333c0-1.061-0.421-2.078-1.172-2.828s-1.768-1.172-2.828-1.172zM24 25.337c0 0.354-0.14 0.693-0.39 0.943s-0.589 0.39-0.943 0.39h-13.333c-0.354 0-0.693-0.14-0.943-0.39s-0.391-0.589-0.391-0.943v-9.333c0-0.354 0.14-0.693 0.391-0.943s0.589-0.391 0.943-0.391h13.333c0.354 0 0.693 0.14 0.943 0.391s0.39 0.589 0.39 0.943v9.333z"></path>
            </symbol>

            
            <symbol id="icon-Move" viewBox="0 0 32 32">
                <path  d="M14.262 0.426c0.568-0.568 1.489-0.568 2.057 0l4.257 4.257c0.568 0.568 0.568 1.489 0 2.057s-1.489 0.568-2.057 0l-1.774-1.774v8.87h8.87l-1.774-1.774c-0.568-0.568-0.568-1.489 0-2.057s1.489-0.568 2.057 0l4.257 4.257c0.568 0.568 0.568 1.489 0 2.057l-4.257 4.257c-0.568 0.568-1.489 0.568-2.057 0s-0.568-1.489 0-2.057l1.774-1.774h-8.87v8.87l1.774-1.774c0.568-0.568 1.489-0.568 2.057 0s0.568 1.489 0 2.057l-4.257 4.257c-0.568 0.568-1.489 0.568-2.057 0l-4.257-4.257c-0.568-0.568-0.568-1.489 0-2.057s1.489-0.568 2.057 0l1.774 1.774v-8.87h-8.87l1.774 1.774c0.568 0.568 0.568 1.489 0 2.057s-1.489 0.568-2.057 0l-4.257-4.257c-0.568-0.568-0.568-1.489 0-2.057l4.257-4.257c0.568-0.568 1.489-0.568 2.057 0s0.568 1.489 0 2.057l-1.774 1.774h8.87v-8.87l-1.774 1.774c-0.568 0.568-1.489 0.568-2.057 0s-0.568-1.489 0-2.057l4.257-4.257z"></path>
                </symbol>

        
        <symbol id="icon-Orbital-camera" viewBox="0 0 30 32">
            <path  d="M20.211 14.316c0 2.791-2.262 5.053-5.053 5.053s-5.053-2.262-5.053-5.053c0-2.79 2.262-5.053 5.053-5.053s5.053 2.262 5.053 5.053z"></path>
            <path  d="M15.158 0.717l13.892 7.948-0.836 1.462-13.055-7.469-13.056 7.469-0.836-1.462 13.892-7.948zM1.071 16.58l1.226-1.154 12.86 13.664 12.86-13.664 1.226 1.154-14.087 14.967-14.087-14.967z"></path>
            </symbol>


        
        <symbol id="icon-Preview-AR" viewBox="0 0 37 32">
            <path  d="M35.765 0.941v30.118h-34.824v-30.118h34.824zM0 0v32h36.706v-32h-36.706z"></path>
            <path  d="M21.647 14.372l-4.706-2.72c-0.286-0.165-0.61-0.252-0.941-0.252s-0.655 0.087-0.941 0.252-0.524 0.402-0.689 0.688c-0.165 0.286-0.253 0.61-0.253 0.941v5.44c0 0.33 0.087 0.654 0.253 0.94s0.403 0.523 0.688 0.688c0.286 0.165 0.611 0.252 0.941 0.252s0.655-0.087 0.941-0.252l4.706-2.72c0.285-0.165 0.522-0.403 0.687-0.689s0.251-0.61 0.251-0.939-0.087-0.654-0.251-0.939c-0.165-0.286-0.401-0.523-0.687-0.689v0zM20.706 16l-4.706 2.72v-5.44l4.706 2.72zM17.882 6.588c-1.861 0-3.681 0.552-5.229 1.586s-2.754 2.504-3.466 4.224c-0.712 1.72-0.899 3.612-0.536 5.438s1.26 3.503 2.576 4.819c1.316 1.316 2.993 2.213 4.819 2.576s3.718 0.177 5.438-0.536c1.72-0.712 3.19-1.919 4.224-3.466s1.586-3.367 1.586-5.229c0-1.236-0.243-2.46-0.716-3.602s-1.166-2.179-2.040-3.053-1.912-1.567-3.053-2.040c-1.142-0.473-2.366-0.716-3.602-0.716v0zM17.882 23.529c-1.489 0-2.945-0.442-4.183-1.269s-2.203-2.003-2.773-3.379-0.719-2.89-0.429-4.35c0.291-1.461 1.008-2.802 2.061-3.855s2.395-1.77 3.855-2.061c1.461-0.291 2.974-0.141 4.35 0.428s2.552 1.535 3.379 2.773c0.827 1.238 1.269 2.694 1.269 4.183 0 1.997-0.793 3.912-2.205 5.324s-3.327 2.205-5.324 2.205v0z"></path>
            </symbol>

           
            <symbol id="icon-Redo" viewBox="0 0 33 32">
                <path  d="M26.441 9.668c-0.067-0.165-0.167-0.314-0.293-0.44l-6.173-6.173c-0.25-0.248-0.588-0.388-0.94-0.388s-0.69 0.139-0.94 0.388c-0.125 0.124-0.224 0.271-0.292 0.434s-0.103 0.337-0.103 0.513 0.035 0.35 0.103 0.513c0.068 0.162 0.167 0.31 0.292 0.434l3.893 3.893h-10.667c-1.414 0-2.771 0.562-3.771 1.562s-1.562 2.357-1.562 3.771v13.827c0 0.354 0.14 0.693 0.391 0.943s0.589 0.391 0.943 0.391c0.354 0 0.693-0.141 0.943-0.391s0.391-0.589 0.391-0.943v-13.827c0-0.707 0.281-1.386 0.781-1.886s1.178-0.781 1.886-0.781h10.667l-3.893 3.893c-0.188 0.187-0.316 0.425-0.368 0.684s-0.026 0.529 0.076 0.774c0.101 0.245 0.274 0.453 0.494 0.6s0.48 0.224 0.745 0.222c0.352-0.005 0.687-0.149 0.933-0.4l6.173-6.16c0.123-0.133 0.222-0.287 0.293-0.453 0.13-0.321 0.13-0.679 0-1z"></path>
                </symbol>


       
        <symbol id="icon-Right-arrow" viewBox="0 0 32 32">
            <path d="M0 27.429l11.667-11.429-11.667-11.429 2.333-4.571 16.333 16-16.333 16-2.333-4.571z"></path>
            <path d="M13.333 27.429l11.667-11.429-11.667-11.429 2.333-4.571 16.333 16-16.333 16-2.333-4.571z"></path>
            </symbol>


       
        <symbol id="icon-Right-prespective" viewBox="0 0 32 32">
            <path fill="#7aa6ff" style="fill: var(--color3, #7aa6ff)" d="M6.446 9.996l-6.005-2.267 6.056-2.164 5.987 2.205-6.037 2.226zM6.837 15.261c1.283-0.409 2.582-0.359 3.782 0.057l2.321-4.52v-2.353l-6.104 2.25v4.566zM17.367 5.635l0.011 18.179 7.665-3.266-7.676-14.913zM11.344 15.63c1.548 0.864 2.707 2.124 2.882 4.019-0.121 1.439-0.711 2.764-1.692 3.775-1.050 1.083-2.467 1.704-3.889 1.704-1.432 0-2.857-0.527-3.91-1.445-1.083-0.945-1.684-2.212-1.694-3.57 0.048-1.933 0.911-3.507 3.010-4.536v-4.884l-6.051-2.285v8.076l3.285 1.51c-0.636 0.995-1.005 2.179-1.005 3.45 0 3.525 2.838 6.382 6.339 6.382 2.963 0 5.451-2.046 6.146-4.812l1.722 0.8-0.011-18.179-5.133 9.995z"></path>
            <path fill="#fff" style="fill: var(--color2, #fff)" d="M30.609 0h1.391v32h-1.391v-32z"></path>
            </symbol>


       
        <symbol id="icon-Rotate" viewBox="0 0 27 32">
            <path  d="M6.107 11.383l-2.298-2.382c-1.317 1.366-2.337 3.008-2.992 4.816l3.044 1.181c0.492-1.357 1.258-2.589 2.246-3.615zM26 18.526c0.005-1.77-0.329-3.523-0.983-5.159s-1.614-3.119-2.826-4.366c-2.036-2.121-4.701-3.47-7.566-3.832v-5.169l-8.125 6.737 8.125 6.737v-4.903c1.997 0.342 3.84 1.325 5.268 2.811 0.909 0.936 1.629 2.049 2.119 3.276s0.741 2.542 0.737 3.869v0.003c0 0.556-0.054 1.103-0.14 1.646-0.011 0.072-0.018 0.148-0.031 0.221-0.288 1.553-0.921 3.016-1.849 4.271-0.26 0.352-0.538 0.694-0.838 1.005-0.367 0.376-0.763 0.722-1.183 1.032-1.102 0.836-2.363 1.419-3.7 1.71-0.231 0.051-0.463 0.084-0.699 0.116-0.101 0.015-0.198 0.035-0.299 0.045-1.030 0.109-2.071 0.051-3.084-0.173l-0.689 3.293c1.352 0.3 2.742 0.378 4.118 0.229 0.112-0.012 0.224-0.035 0.336-0.051 0.333-0.044 0.665-0.094 0.991-0.165l0.086-0.015-0.002-0.008c1.213-0.27 2.383-0.721 3.471-1.339l0.002 0.002 0.045-0.032c0.574-0.332 1.123-0.709 1.641-1.129 0.439-0.352 0.864-0.724 1.262-1.137 0.403-0.416 0.764-0.864 1.107-1.322 0.034-0.047 0.080-0.089 0.114-0.136l-0.010-0.007c0.746-1.026 1.344-2.159 1.776-3.364l0.013 0.005c0.047-0.131 0.081-0.266 0.123-0.399 0.060-0.185 0.122-0.372 0.174-0.561 0.065-0.236 0.119-0.473 0.171-0.712 0.036-0.167 0.078-0.328 0.107-0.497 0.052-0.288 0.091-0.579 0.123-0.869 0.016-0.128 0.037-0.253 0.049-0.382 0.037-0.419 0.060-0.842 0.060-1.268 0.003-0.003 0.003-0.007 0.003-0.013zM5.195 24.586l-2.6 2.023c1.118 1.543 2.541 2.821 4.175 3.748l1.562-2.954c-1.228-0.695-2.297-1.656-3.136-2.816zM3.25 18.528c0-0.244 0.008-0.483 0.024-0.723l-3.24-0.241c-0.136 1.93 0.132 3.867 0.785 5.68l3.044-1.181c-0.407-1.131-0.615-2.328-0.613-3.535z"></path>
            </symbol>


           
            <symbol id="icon-Scale" viewBox="0 0 30 32">
                <path fill="#fff" style="fill: var(--color2, #fff)" d="M4.211 2.124h-0.842v-1.347h0.842v1.347zM7.579 2.124h-1.684v-1.347h1.684v1.347zM10.948 2.124h-1.684v-1.347h1.684v1.347zM14.316 2.124h-1.684v-1.347h1.684v1.347zM17.684 2.124h-1.684v-1.347h1.684v1.347zM21.053 2.124h-1.684v-1.347h1.684v1.347zM24.421 2.124h-1.684v-1.347h1.684v1.347zM26.948 2.124h-0.842v-1.347h0.842v1.347zM0.705 5.049v-0.842h1.347v0.842h-1.347zM28.264 5.049v-0.842h1.347v0.842h-1.347zM0.705 8.417v-1.684h1.347v1.684h-1.347zM28.264 8.417v-1.684h1.347v1.684h-1.347zM0.705 11.786v-1.684h1.347v1.684h-1.347zM28.264 11.786v-1.684h1.347v1.684h-1.347zM0.705 15.154v-1.684h1.347v1.684h-1.347zM28.264 15.154v-1.684h1.347v1.684h-1.347zM0.705 18.522v-1.684h1.347v1.684h-1.347zM28.264 18.522v-1.684h1.347v1.684h-1.347zM0.705 21.891v-1.684h1.347v1.684h-1.347zM28.264 21.891v-1.684h1.347v1.684h-1.347zM0.705 25.259v-1.684h1.347v1.684h-1.347zM28.264 25.259v-1.684h1.347v1.684h-1.347zM0.705 27.786v-0.842h1.347v0.842h-1.347zM28.264 27.786v-0.842h1.347v0.842h-1.347zM4.211 31.215h-0.842v-1.347h0.842v1.347zM7.579 31.215h-1.684v-1.347h1.684v1.347zM10.948 31.215h-1.684v-1.347h1.684v1.347zM14.316 31.215h-1.684v-1.347h1.684v1.347zM17.684 31.215h-1.684v-1.347h1.684v1.347zM21.053 31.215h-1.684v-1.347h1.684v1.347zM24.421 31.215h-1.684v-1.347h1.684v1.347zM26.948 31.215h-0.842v-1.347h0.842v1.347z"></path>
                <path  d="M0 0h4.134v4.364h-4.134v-4.364z"></path>
                <path  d="M3.41 0.724v2.915h-2.686v-2.915h2.686zM0 0v4.364h4.134v-4.364h-4.134z"></path>
                <path  d="M26.182 0h4.134v4.364h-4.134v-4.364z"></path>
                <path  d="M29.592 0.724v2.915h-2.686v-2.915h2.686zM26.182 0v4.364h4.134v-4.364h-4.134z"></path>
                <path  d="M26.181 27.638h4.134v4.364h-4.134v-4.364z"></path>
                <path  d="M29.591 28.362v2.915h-2.686v-2.915h2.686zM26.181 27.638v4.364h4.134v-4.364h-4.134z"></path>
                <path  d="M0 27.638h4.134v4.364h-4.134v-4.364z"></path>
                <path  d="M3.41 28.362v2.915h-2.686v-2.915h2.686zM0 27.638v4.364h4.134v-4.364h-4.134z"></path>
                </symbol>

       
        <symbol id="icon-setting" viewBox="0 0 32 32">
            <path  d="M26.533 16.882c-0.214-0.243-0.332-0.556-0.332-0.88s0.118-0.637 0.332-0.88l1.707-1.92c0.188-0.21 0.305-0.474 0.334-0.754s-0.032-0.562-0.174-0.806l-2.667-4.613c-0.14-0.243-0.353-0.436-0.61-0.551s-0.542-0.146-0.817-0.089l-2.507 0.507c-0.319 0.066-0.651 0.013-0.933-0.149s-0.496-0.422-0.6-0.731l-0.813-2.44c-0.089-0.265-0.26-0.495-0.487-0.658s-0.5-0.25-0.779-0.249h-5.333c-0.291-0.015-0.579 0.065-0.819 0.229s-0.421 0.402-0.514 0.678l-0.747 2.44c-0.104 0.309-0.317 0.569-0.6 0.731s-0.615 0.215-0.933 0.149l-2.573-0.507c-0.261-0.037-0.526 0.004-0.764 0.118s-0.436 0.295-0.57 0.522l-2.667 4.613c-0.145 0.241-0.21 0.521-0.186 0.802s0.136 0.546 0.32 0.758l1.693 1.92c0.214 0.243 0.332 0.556 0.332 0.88s-0.118 0.637-0.332 0.88l-1.693 1.92c-0.184 0.213-0.296 0.478-0.32 0.758s0.041 0.561 0.186 0.802l2.667 4.613c0.14 0.243 0.354 0.436 0.61 0.551s0.542 0.146 0.817 0.089l2.507-0.507c0.319-0.066 0.651-0.013 0.933 0.149s0.496 0.422 0.6 0.731l0.813 2.44c0.093 0.276 0.273 0.514 0.514 0.678s0.528 0.244 0.819 0.229h5.333c0.279 0.001 0.552-0.087 0.779-0.249s0.398-0.393 0.487-0.657l0.813-2.44c0.104-0.309 0.317-0.569 0.6-0.731s0.615-0.215 0.933-0.149l2.507 0.507c0.275 0.057 0.561 0.026 0.817-0.089s0.47-0.308 0.61-0.551l2.667-4.613c0.142-0.244 0.202-0.526 0.174-0.806s-0.146-0.544-0.334-0.754l-1.8-1.92zM24.547 18.669l1.067 1.2-1.707 2.96-1.573-0.32c-0.96-0.196-1.959-0.033-2.807 0.458s-1.486 1.277-1.793 2.208l-0.507 1.493h-3.413l-0.48-1.52c-0.307-0.931-0.945-1.717-1.793-2.208s-1.847-0.655-2.807-0.458l-1.573 0.32-1.733-2.947 1.067-1.2c0.656-0.733 1.019-1.683 1.019-2.667s-0.363-1.933-1.019-2.667l-1.067-1.2 1.707-2.933 1.573 0.32c0.96 0.196 1.959 0.033 2.807-0.458s1.486-1.277 1.793-2.208l0.507-1.507h3.413l0.507 1.52c0.307 0.931 0.945 1.717 1.793 2.208s1.847 0.655 2.807 0.458l1.573-0.32 1.707 2.96-1.067 1.2c-0.649 0.732-1.007 1.675-1.007 2.653s0.358 1.922 1.007 2.653zM15.52 10.668c-1.055 0-2.086 0.313-2.963 0.899s-1.561 1.419-1.964 2.393c-0.404 0.975-0.509 2.047-0.303 3.081s0.714 1.985 1.46 2.731c0.746 0.746 1.696 1.254 2.731 1.46s2.107 0.1 3.081-0.303c0.975-0.404 1.807-1.087 2.394-1.964s0.899-1.908 0.899-2.963c0-1.415-0.562-2.771-1.562-3.771s-2.357-1.562-3.771-1.562zM15.52 18.669c-0.527 0-1.043-0.156-1.481-0.449s-0.78-0.709-0.982-1.197c-0.202-0.487-0.255-1.023-0.152-1.541s0.357-0.992 0.73-1.365c0.373-0.373 0.848-0.627 1.365-0.73s1.053-0.050 1.541 0.152c0.487 0.202 0.904 0.544 1.197 0.982s0.449 0.954 0.449 1.482c0 0.707-0.281 1.385-0.781 1.886s-1.178 0.781-1.886 0.781z"></path>
            </symbol>


           
            <symbol id="icon-sun" viewBox="0 0 32 32">
                <path  d="M7.52 22.667l-0.947 0.947c-0.248 0.25-0.388 0.588-0.388 0.94s0.139 0.69 0.388 0.94c0.25 0.248 0.588 0.388 0.94 0.388s0.69-0.139 0.94-0.388l0.947-0.947c0.218-0.255 0.333-0.583 0.32-0.919s-0.152-0.654-0.39-0.891-0.556-0.377-0.891-0.389c-0.336-0.013-0.664 0.101-0.919 0.32zM6.667 16c0-0.354-0.14-0.693-0.391-0.943s-0.589-0.391-0.943-0.391h-1.333c-0.354 0-0.693 0.141-0.943 0.391s-0.391 0.589-0.391 0.943c0 0.354 0.14 0.693 0.391 0.943s0.589 0.391 0.943 0.391h1.333c0.354 0 0.693-0.141 0.943-0.391s0.391-0.589 0.391-0.943zM16 6.667c0.354 0 0.693-0.14 0.943-0.391s0.391-0.589 0.391-0.943v-1.333c0-0.354-0.141-0.693-0.391-0.943s-0.589-0.391-0.943-0.391c-0.354 0-0.693 0.14-0.943 0.391s-0.391 0.589-0.391 0.943v1.333c0 0.354 0.141 0.693 0.391 0.943s0.589 0.391 0.943 0.391zM7.52 9.4c0.248 0.246 0.584 0.385 0.933 0.387 0.175 0.001 0.349-0.033 0.512-0.099s0.31-0.164 0.435-0.288c0.248-0.25 0.388-0.588 0.388-0.94s-0.139-0.69-0.388-0.94l-0.947-0.947c-0.255-0.218-0.583-0.333-0.919-0.32s-0.654 0.152-0.891 0.39c-0.237 0.237-0.377 0.556-0.39 0.891s0.101 0.664 0.32 0.919l0.947 0.947zM23.52 9.787c0.35-0.001 0.685-0.14 0.933-0.387l0.947-0.947c0.14-0.12 0.253-0.267 0.333-0.432s0.125-0.346 0.132-0.529c0.007-0.184-0.024-0.367-0.091-0.538s-0.169-0.327-0.299-0.456c-0.13-0.13-0.285-0.232-0.456-0.299s-0.354-0.098-0.538-0.091c-0.184 0.007-0.364 0.052-0.529 0.132s-0.313 0.193-0.432 0.333l-0.853 0.947c-0.248 0.25-0.388 0.588-0.388 0.94s0.139 0.69 0.388 0.94c0.235 0.234 0.549 0.372 0.88 0.387h-0.027zM28 14.667h-1.333c-0.354 0-0.693 0.141-0.943 0.391s-0.391 0.589-0.391 0.943c0 0.354 0.141 0.693 0.391 0.943s0.589 0.391 0.943 0.391h1.333c0.354 0 0.693-0.141 0.943-0.391s0.391-0.589 0.391-0.943c0-0.354-0.141-0.693-0.391-0.943s-0.589-0.391-0.943-0.391zM16 25.333c-0.354 0-0.693 0.141-0.943 0.391s-0.391 0.589-0.391 0.943v1.333c0 0.354 0.141 0.693 0.391 0.943s0.589 0.391 0.943 0.391c0.354 0 0.693-0.141 0.943-0.391s0.391-0.589 0.391-0.943v-1.333c0-0.354-0.141-0.693-0.391-0.943s-0.589-0.391-0.943-0.391zM24.48 22.667c-0.253-0.141-0.546-0.195-0.833-0.155s-0.553 0.173-0.758 0.378c-0.205 0.205-0.338 0.471-0.378 0.758s0.014 0.579 0.155 0.833l0.947 0.947c0.25 0.248 0.588 0.388 0.94 0.388s0.69-0.139 0.94-0.388c0.248-0.25 0.388-0.588 0.388-0.94s-0.139-0.69-0.388-0.94l-1.013-0.88zM16 8.667c-1.45 0-2.868 0.43-4.074 1.236s-2.146 1.951-2.701 3.291c-0.555 1.34-0.7 2.814-0.417 4.237s0.981 2.729 2.007 3.755c1.026 1.026 2.332 1.724 3.755 2.007s2.897 0.138 4.237-0.417c1.34-0.555 2.485-1.495 3.291-2.701s1.236-2.624 1.236-4.074c-0.003-1.944-0.777-3.807-2.152-5.182s-3.238-2.148-5.182-2.152zM16 20.667c-0.923 0-1.825-0.274-2.593-0.787s-1.366-1.242-1.719-2.094-0.446-1.791-0.266-2.696c0.18-0.905 0.625-1.737 1.277-2.389s1.484-1.097 2.389-1.277c0.905-0.18 1.844-0.088 2.696 0.266s1.582 0.951 2.094 1.719c0.513 0.767 0.787 1.67 0.787 2.593 0 1.238-0.492 2.425-1.367 3.3s-2.062 1.367-3.3 1.367z"></path>
                </symbol>

        

        <symbol id="icon-Top-prespective" viewBox="0 0 33 32">
                    <path fill="#7aa6ff" style="fill: var(--color3, #7aa6ff)" d="M22.352 13.36l6.279-2.37-6.332-2.262-6.259 2.305 6.312 2.327zM21.943 18.863c-1.342-0.428-2.699-0.375-3.954 0.059l-2.427-4.725v-2.46l6.381 2.353v4.774zM10.934 8.8l-0.011 19.006-8.014-3.415 8.025-15.591zM17.232 19.25c-1.618 0.903-2.83 2.221-3.013 4.201 0.127 1.505 0.743 2.889 1.768 3.947 1.098 1.132 2.58 1.781 4.066 1.781 1.497 0 2.987-0.551 4.088-1.511 1.133-0.988 1.76-2.312 1.771-3.732-0.051-2.021-0.952-3.667-3.147-4.742v-5.107l6.326-2.388v8.444l-3.434 1.579c0.665 1.040 1.051 2.278 1.051 3.606 0 3.685-2.967 6.672-6.628 6.672-3.097 0-5.698-2.139-6.425-5.030l-1.801 0.836 0.011-19.006 5.366 10.449z"></path>
                    <path fill="#fff" style="fill: var(--color2, #fff)" d="M33.455 0v1.455h-33.455v-1.455h33.455z"></path>
                    </symbol>



       
        <symbol id="icon-undo" viewBox="0 0 33 32">
            <path  d="M19.881 8.841h-9.333l3.893-3.893c0.125-0.124 0.224-0.271 0.292-0.434s0.103-0.337 0.103-0.513-0.035-0.35-0.103-0.513c-0.068-0.162-0.167-0.31-0.292-0.434-0.25-0.248-0.588-0.388-0.94-0.388s-0.69 0.139-0.94 0.388l-6.12 6.173c-0.126 0.126-0.226 0.275-0.293 0.44-0.133 0.325-0.133 0.689 0 1.013 0.072 0.162 0.172 0.311 0.293 0.44l6.173 6.213c0.246 0.251 0.582 0.395 0.933 0.4 0.265 0.001 0.524-0.076 0.745-0.222s0.393-0.355 0.494-0.6c0.102-0.245 0.128-0.514 0.076-0.774s-0.18-0.498-0.368-0.684l-3.893-3.947h9.333c1.061 0 2.078 0.421 2.828 1.172s1.172 1.768 1.172 2.828v12.493c0 0.354 0.14 0.693 0.391 0.943s0.589 0.391 0.943 0.391c0.354 0 0.693-0.141 0.943-0.391s0.391-0.589 0.391-0.943v-12.493c0-0.88-0.174-1.751-0.513-2.564s-0.834-1.55-1.459-2.169c-0.625-0.62-1.366-1.11-2.181-1.442s-1.688-0.499-2.568-0.492z"></path>
            </symbol>


            
            <symbol id="icon-View" viewBox="0 0 32 32">
                <path  d="M29.227 15.469c-2.693-6.253-7.76-10.133-13.227-10.133s-10.533 3.88-13.227 10.133c-0.073 0.168-0.111 0.35-0.111 0.533s0.038 0.365 0.111 0.533c2.693 6.253 7.76 10.133 13.227 10.133s10.533-3.88 13.227-10.133c0.073-0.168 0.111-0.35 0.111-0.533s-0.038-0.365-0.111-0.533zM16 24.003c-4.227 0-8.227-3.053-10.533-8 2.307-4.947 6.307-8 10.533-8s8.227 3.053 10.533 8c-2.307 4.947-6.307 8-10.533 8zM16 10.669c-1.055 0-2.086 0.313-2.963 0.899s-1.561 1.419-1.964 2.394c-0.404 0.975-0.509 2.047-0.303 3.081s0.714 1.985 1.46 2.731c0.746 0.746 1.696 1.254 2.731 1.46s2.107 0.1 3.081-0.303c0.975-0.404 1.808-1.087 2.394-1.964s0.899-1.908 0.899-2.963c0-1.414-0.562-2.771-1.562-3.771s-2.357-1.562-3.771-1.562zM16 18.669c-0.527 0-1.043-0.156-1.482-0.449s-0.78-0.709-0.982-1.197c-0.202-0.487-0.255-1.023-0.152-1.541s0.357-0.992 0.73-1.365c0.373-0.373 0.848-0.627 1.365-0.73s1.053-0.050 1.541 0.152c0.487 0.202 0.904 0.544 1.197 0.982s0.449 0.954 0.449 1.482c0 0.707-0.281 1.386-0.781 1.886s-1.178 0.781-1.886 0.781z"></path>
                </symbol>

       
        <symbol id="icon-World-camera" viewBox="0 0 32 32">
            <path d="M16 30.4c-7.953 0-14.4-6.447-14.4-14.4s6.447-14.4 14.4-14.4c7.953 0 14.4 6.447 14.4 14.4s-6.447 14.4-14.4 14.4zM16 32c8.836 0 16-7.164 16-16s-7.164-16-16-16c-8.837 0-16 7.163-16 16s7.163 16 16 16z"></path>
            <path d="M20.8 16c0 2.651-2.149 4.8-4.8 4.8s-4.8-2.149-4.8-4.8c0-2.651 2.149-4.8 4.8-4.8s4.8 2.149 4.8 4.8z"></path>
            </symbol>
    
    </defs>
</svg>